{
  "source": "C:\\Users\\Peter\\Desktop\\stuff\\MIUN\\quantitative_research\\video_compression\\videos\\HEVC_CLASS_B\\Kimono_1920x1080_24.y4m",
  "output": "C:\\Users\\Peter\\Desktop\\stuff\\MIUN\\quantitative_research\\video_compression\\compressed_videos\\HEVC_CLASS_B\\hevc\\4\\Kimono_1920x1080_24_hevc.mp4",
  "codec": "hevc",
  "ok": "Input #0, yuv4mpegpipe, from 'C:\\Users\\Peter\\Desktop\\stuff\\MIUN\\quantitative_research\\video_compression\\videos\\HEVC_CLASS_B\\Kimono_1920x1080_24.y4m':\n  Duration: 00:00:10.00, start: 0.000000, bitrate: 597198 kb/s\n  Stream #0:0: Video: rawvideo (I420 / 0x30323449), yuv420p(progressive), 1920x1080, 24 fps, 24 tbr, 24 tbn\n[out#0/mp4 @ 0000013fec07b640] Codec AVOption b:a (set bitrate (in bits/s)) has not been used for any stream. The most likely reason is either wrong type (e.g. a video option with no video streams) or that it is a private option of some decoder which was not actually used for any stream.\nStream mapping:\n  Stream #0:0 -> #0:0 (rawvideo (native) -> hevc (libx265))\nPress [q] to stop, [?] for help\n[libx265 @ 0000013fec07ca80] Unknown option: \"aq-mode.\nx265 [info]: HEVC encoder version 4.1+190-8f11c33ac\nx265 [info]: build info [Windows][GCC 15.1.0][64 bit] 10bit\nx265 [info]: using cpu capabilities: MMX2 SSE2Fast LZCNT SSSE3 SSE4.2 AVX FMA3 BMI2 AVX2\nx265 [info]: Main 10 profile, Level-4 (Main tier)\nx265 [info]: Thread pool created using 12 threads\nx265 [info]: Slices                              : 1\nx265 [info]: frame threads / pool features       : 3 / wpp(17 rows)\nx265 [info]: Coding QT: max CU size, min CU size : 64 / 8\nx265 [info]: Residual QT: max TU size, max depth : 32 / 1 inter / 1 intra\nx265 [info]: ME / range / subpel / merge         : star / 57 / 3 / 3\nx265 [info]: Keyframe min / max / scenecut / bias  : 24 / 250 / 40 / 5.00 \nx265 [info]: Lookahead / bframes / badapt        : 25 / 4 / 2\nx265 [info]: b-pyramid / weightp / weightb       : 1 / 1 / 0\nx265 [info]: References / ref-limit  cu / depth  : 4 / on / on\nx265 [info]: AQ: mode / str / qg-size / cu-tree  : 2 / 1.0 / 32 / 1\nx265 [info]: Rate Control / qCompress            : ABR-4000 kbps / 0.60\nx265 [info]: VBV/HRD buffer / max-rate / init    : 4000 / 4000 / 0.750\nx265 [info]: tools: rect limit-modes rd=4 psy-rd=2.00 rdoq=2 psy-rdoq=1.00\nx265 [info]: tools: rskip mode=1 signhide tmvp strong-intra-smoothing lslices=4\nx265 [info]: tools: deblock sao dhdr10-info\nOutput #0, mp4, to 'C:\\Users\\Peter\\Desktop\\stuff\\MIUN\\quantitative_research\\video_compression\\compressed_videos\\HEVC_CLASS_B\\hevc\\4\\Kimono_1920x1080_24_hevc.mp4':\n  Metadata:\n    encoder         : Lavf62.3.100\n  Stream #0:0: Video: hevc (hev1 / 0x31766568), yuv420p10le(tv, progressive), 1920x1080, q=2-31, 4000 kb/s, 24 fps, 12288 tbn\n    Metadata:\n      encoder         : Lavc62.11.100 libx265\n    Side data:\n      cpb: bitrate max/min/avg: 4000000/0/4000000 buffer size: 4000000 vbv_delay: N/A\nframe=    0 fps=0.0 q=0.0 size=       0KiB time=N/A bitrate=N/A speed=N/A elapsed=0:00:00.52    \nframe=    0 fps=0.0 q=0.0 size=       0KiB time=N/A bitrate=N/A speed=N/A elapsed=0:00:01.03    \nframe=    0 fps=0.0 q=0.0 size=       0KiB time=N/A bitrate=N/A speed=N/A elapsed=0:00:01.55    \nframe=    0 fps=0.0 q=0.0 size=       0KiB time=N/A bitrate=N/A speed=N/A elapsed=0:00:02.08    \nframe=    0 fps=0.0 q=0.0 size=       0KiB time=N/A bitrate=N/A speed=N/A elapsed=0:00:02.60    \nframe=    0 fps=0.0 q=0.0 size=       0KiB time=N/A bitrate=N/A speed=N/A elapsed=0:00:03.13    \nframe=    0 fps=0.0 q=0.0 size=       0KiB time=N/A bitrate=N/A speed=N/A elapsed=0:00:03.68    \nframe=    0 fps=0.0 q=0.0 size=       0KiB time=N/A bitrate=N/A speed=N/A elapsed=0:00:04.22    \nframe=    0 fps=0.0 q=0.0 size=       0KiB time=N/A bitrate=N/A speed=N/A elapsed=0:00:04.73    \nframe=    0 fps=0.0 q=0.0 size=       0KiB time=N/A bitrate=N/A speed=N/A elapsed=0:00:05.24    \nframe=    0 fps=0.0 q=0.0 size=       0KiB time=N/A bitrate=N/A speed=N/A elapsed=0:00:05.80    \nframe=    0 fps=0.0 q=0.0 size=       0KiB time=N/A bitrate=N/A speed=N/A elapsed=0:00:06.33    \nframe=    0 fps=0.0 q=0.0 size=       0KiB time=N/A bitrate=N/A speed=N/A elapsed=0:00:06.84    \nframe=    0 fps=0.0 q=0.0 size=       0KiB time=N/A bitrate=N/A speed=N/A elapsed=0:00:07.38    \nframe=    0 fps=0.0 q=0.0 size=       0KiB time=N/A bitrate=N/A speed=N/A elapsed=0:00:07.90    \nframe=    0 fps=0.0 q=0.0 size=       0KiB time=N/A bitrate=N/A speed=N/A elapsed=0:00:08.42    \nframe=    0 fps=0.0 q=0.0 size=       0KiB time=N/A bitrate=N/A speed=N/A elapsed=0:00:08.94    \nframe=    0 fps=0.0 q=0.0 size=       0KiB time=N/A bitrate=N/A speed=N/A elapsed=0:00:09.45    \nframe=    0 fps=0.0 q=0.0 size=       0KiB time=N/A bitrate=N/A speed=N/A elapsed=0:00:09.96    \nframe=    0 fps=0.0 q=0.0 size=       0KiB time=N/A bitrate=N/A speed=N/A elapsed=0:00:10.48    \nframe=    1 fps=0.1 q=28.3 size=       0KiB time=-00:00:00.04 bitrate=N/A speed=N/A elapsed=0:00:11.00    \nframe=    1 fps=0.1 q=28.3 size=       0KiB time=-00:00:00.04 bitrate=N/A speed=N/A elapsed=0:00:11.52    \nframe=    1 fps=0.1 q=28.3 size=       0KiB time=-00:00:00.04 bitrate=N/A speed=N/A elapsed=0:00:12.04    \nframe=    1 fps=0.1 q=28.3 size=       0KiB time=-00:00:00.04 bitrate=N/A speed=N/A elapsed=0:00:12.56    \nframe=    2 fps=0.2 q=32.0 size=       0KiB time=00:00:00.00 bitrate=N/A speed=   0x elapsed=0:00:13.10    \nframe=    2 fps=0.1 q=32.0 size=       0KiB time=00:00:00.00 bitrate=N/A speed=   0x elapsed=0:00:13.63    \nframe=    3 fps=0.2 q=34.5 size=       0KiB time=00:00:00.04 bitrate=   8.4kbits/s speed=0.00294x elapsed=0:00:14.16    \nframe=    3 fps=0.2 q=34.5 size=       0KiB time=00:00:00.04 bitrate=   8.4kbits/s speed=0.00283x elapsed=0:00:14.69    \nframe=    3 fps=0.2 q=34.5 size=       0KiB time=00:00:00.04 bitrate=   8.4kbits/s speed=0.00274x elapsed=0:00:15.22    \nframe=    3 fps=0.2 q=34.5 size=       0KiB time=00:00:00.04 bitrate=   8.4kbits/s speed=0.00265x elapsed=0:00:15.73    \nframe=    3 fps=0.2 q=34.5 size=       0KiB time=00:00:00.04 bitrate=   8.4kbits/s speed=0.00256x elapsed=0:00:16.26    \nframe=    3 fps=0.2 q=34.5 size=       0KiB time=00:00:00.04 bitrate=   8.4kbits/s speed=0.00248x elapsed=0:00:16.78    \nframe=    3 fps=0.2 q=34.5 size=       0KiB time=00:00:00.04 bitrate=   8.4kbits/s speed=0.00241x elapsed=0:00:17.31    \nframe=    3 fps=0.2 q=34.5 size=       0KiB time=00:00:00.04 bitrate=   8.4kbits/s speed=0.00233x elapsed=0:00:17.84    \nframe=    3 fps=0.2 q=34.5 size=       0KiB time=00:00:00.04 bitrate=   8.4kbits/s speed=0.00227x elapsed=0:00:18.38    \nframe=    4 fps=0.2 q=36.6 size=       0KiB time=00:00:00.08 bitrate=   4.2kbits/s speed=0.00441x elapsed=0:00:18.89    \nframe=    4 fps=0.2 q=36.6 size=       0KiB time=00:00:00.08 bitrate=   4.2kbits/s speed=0.00429x elapsed=0:00:19.40    \nframe=    4 fps=0.2 q=36.6 size=       0KiB time=00:00:00.08 bitrate=   4.2kbits/s speed=0.00418x elapsed=0:00:19.92    \nframe=    4 fps=0.2 q=36.6 size=       0KiB time=00:00:00.08 bitrate=   4.2kbits/s speed=0.00408x elapsed=0:00:20.44    \nframe=    4 fps=0.2 q=36.6 size=       0KiB time=00:00:00.08 bitrate=   4.2kbits/s speed=0.00398x elapsed=0:00:20.95    \nframe=    4 fps=0.2 q=36.6 size=       0KiB time=00:00:00.08 bitrate=   4.2kbits/s speed=0.00388x elapsed=0:00:21.49    \nframe=    4 fps=0.2 q=36.6 size=       0KiB time=00:00:00.08 bitrate=   4.2kbits/s speed=0.00378x elapsed=0:00:22.02    \nframe=    5 fps=0.2 q=35.2 size=       0KiB time=00:00:00.12 bitrate=   2.8kbits/s speed=0.00555x elapsed=0:00:22.52    \nframe=    5 fps=0.2 q=35.2 size=       0KiB time=00:00:00.12 bitrate=   2.8kbits/s speed=0.00542x elapsed=0:00:23.06    \nframe=    5 fps=0.2 q=35.2 size=       0KiB time=00:00:00.12 bitrate=   2.8kbits/s speed=0.0053x elapsed=0:00:23.59    \nframe=    5 fps=0.2 q=35.2 size=       0KiB time=00:00:00.12 bitrate=   2.8kbits/s speed=0.00518x elapsed=0:00:24.11    \nframe=    6 fps=0.2 q=30.6 size=       0KiB time=00:00:00.16 bitrate=   2.1kbits/s speed=0.00677x elapsed=0:00:24.62    \nframe=    6 fps=0.2 q=30.6 size=       0KiB time=00:00:00.16 bitrate=   2.1kbits/s speed=0.00663x elapsed=0:00:25.14    \nframe=    6 fps=0.2 q=30.6 size=       0KiB time=00:00:00.16 bitrate=   2.1kbits/s speed=0.00649x elapsed=0:00:25.66    \nframe=    6 fps=0.2 q=30.6 size=       0KiB time=00:00:00.16 bitrate=   2.1kbits/s speed=0.00637x elapsed=0:00:26.17    \nframe=    6 fps=0.2 q=30.6 size=       0KiB time=00:00:00.16 bitrate=   2.1kbits/s speed=0.00624x elapsed=0:00:26.69    \nframe=    6 fps=0.2 q=30.6 size=       0KiB time=00:00:00.16 bitrate=   2.1kbits/s speed=0.00612x elapsed=0:00:27.22    \nframe=    7 fps=0.3 q=34.4 size=       0KiB time=00:00:00.20 bitrate=   1.7kbits/s speed=0.0075x elapsed=0:00:27.76    \nframe=    7 fps=0.2 q=34.4 size=       0KiB time=00:00:00.20 bitrate=   1.7kbits/s speed=0.00737x elapsed=0:00:28.28    \nframe=    7 fps=0.2 q=34.4 size=       0KiB time=00:00:00.20 bitrate=   1.7kbits/s speed=0.00723x elapsed=0:00:28.81    \nframe=    8 fps=0.3 q=36.0 size=       0KiB time=00:00:00.25 bitrate=   1.4kbits/s speed=0.00852x elapsed=0:00:29.33    \nframe=    8 fps=0.3 q=36.0 size=       0KiB time=00:00:00.25 bitrate=   1.4kbits/s speed=0.00837x elapsed=0:00:29.86    \nframe=    8 fps=0.3 q=36.0 size=       0KiB time=00:00:00.25 bitrate=   1.4kbits/s speed=0.00823x elapsed=0:00:30.38    \nframe=    8 fps=0.3 q=36.0 size=       0KiB time=00:00:00.25 bitrate=   1.4kbits/s speed=0.00809x elapsed=0:00:30.92    \nframe=    8 fps=0.3 q=36.0 size=       0KiB time=00:00:00.25 bitrate=   1.4kbits/s speed=0.00795x elapsed=0:00:31.45    \nframe=    8 fps=0.3 q=36.0 size=       0KiB time=00:00:00.25 bitrate=   1.4kbits/s speed=0.00781x elapsed=0:00:31.99    \nframe=    9 fps=0.3 q=35.2 size=       0KiB time=00:00:00.29 bitrate=   1.2kbits/s speed=0.00897x elapsed=0:00:32.50    \nframe=    9 fps=0.3 q=35.2 size=       0KiB time=00:00:00.29 bitrate=   1.2kbits/s speed=0.00883x elapsed=0:00:33.03    \nframe=    9 fps=0.3 q=35.2 size=       0KiB time=00:00:00.29 bitrate=   1.2kbits/s speed=0.00869x elapsed=0:00:33.57    \nframe=    9 fps=0.3 q=35.2 size=       0KiB time=00:00:00.29 bitrate=   1.2kbits/s speed=0.00855x elapsed=0:00:34.09    \nframe=    9 fps=0.3 q=35.2 size=       0KiB time=00:00:00.29 bitrate=   1.2kbits/s speed=0.00842x elapsed=0:00:34.62    \nframe=    9 fps=0.3 q=35.2 size=       0KiB time=00:00:00.29 bitrate=   1.2kbits/s speed=0.00829x elapsed=0:00:35.16    \nframe=   10 fps=0.3 q=35.0 size=       0KiB time=00:00:00.33 bitrate=   1.1kbits/s speed=0.00933x elapsed=0:00:35.71    \nframe=   10 fps=0.3 q=35.0 size=       0KiB time=00:00:00.33 bitrate=   1.1kbits/s speed=0.0092x elapsed=0:00:36.24    \nframe=   10 fps=0.3 q=35.0 size=       0KiB time=00:00:00.33 bitrate=   1.1kbits/s speed=0.00907x elapsed=0:00:36.77    \nframe=   10 fps=0.3 q=35.0 size=       0KiB time=00:00:00.33 bitrate=   1.1kbits/s speed=0.00894x elapsed=0:00:37.28    \nframe=   11 fps=0.3 q=28.8 size=       0KiB time=00:00:00.37 bitrate=   0.9kbits/s speed=0.00992x elapsed=0:00:37.81    \nframe=   11 fps=0.3 q=28.8 size=       0KiB time=00:00:00.37 bitrate=   0.9kbits/s speed=0.00978x elapsed=0:00:38.33    \nframe=   11 fps=0.3 q=28.8 size=       0KiB time=00:00:00.37 bitrate=   0.9kbits/s speed=0.00965x elapsed=0:00:38.87    \nframe=   11 fps=0.3 q=28.8 size=       0KiB time=00:00:00.37 bitrate=   0.9kbits/s speed=0.00951x elapsed=0:00:39.41    \nframe=   11 fps=0.3 q=28.8 size=       0KiB time=00:00:00.37 bitrate=   0.9kbits/s speed=0.00939x elapsed=0:00:39.92    \nframe=   11 fps=0.3 q=28.8 size=       0KiB time=00:00:00.37 bitrate=   0.9kbits/s speed=0.00927x elapsed=0:00:40.46    \nframe=   12 fps=0.3 q=31.7 size=       0KiB time=00:00:00.41 bitrate=   0.8kbits/s speed=0.0102x elapsed=0:00:40.98    \nframe=   12 fps=0.3 q=31.7 size=       0KiB time=00:00:00.41 bitrate=   0.8kbits/s speed=0.01x elapsed=0:00:41.50    \nframe=   12 fps=0.3 q=31.7 size=       0KiB time=00:00:00.41 bitrate=   0.8kbits/s speed=0.00991x elapsed=0:00:42.03    \nframe=   12 fps=0.3 q=31.7 size=       0KiB time=00:00:00.41 bitrate=   0.8kbits/s speed=0.00979x elapsed=0:00:42.55    \nframe=   13 fps=0.3 q=34.5 size=       0KiB time=00:00:00.45 bitrate=   0.8kbits/s speed=0.0106x elapsed=0:00:43.07    \nframe=   13 fps=0.3 q=34.5 size=       0KiB time=00:00:00.45 bitrate=   0.8kbits/s speed=0.0105x elapsed=0:00:43.58    \nframe=   13 fps=0.3 q=34.5 size=       0KiB time=00:00:00.45 bitrate=   0.8kbits/s speed=0.0104x elapsed=0:00:44.10    \nframe=   14 fps=0.3 q=34.1 size=       0KiB time=00:00:00.50 bitrate=   0.7kbits/s speed=0.0112x elapsed=0:00:44.61    \nframe=   15 fps=0.3 q=28.9 size=       0KiB time=00:00:00.54 bitrate=   0.6kbits/s speed=0.012x elapsed=0:00:45.13    \nframe=   15 fps=0.3 q=28.9 size=       0KiB time=00:00:00.54 bitrate=   0.6kbits/s speed=0.0119x elapsed=0:00:45.64    \nframe=   16 fps=0.3 q=30.7 size=     256KiB time=00:00:00.58 bitrate=3595.7kbits/s speed=0.0126x elapsed=0:00:46.16    \nframe=   16 fps=0.3 q=30.7 size=     256KiB time=00:00:00.58 bitrate=3595.7kbits/s speed=0.0125x elapsed=0:00:46.68    \nframe=   16 fps=0.3 q=30.7 size=     256KiB time=00:00:00.58 bitrate=3595.7kbits/s speed=0.0124x elapsed=0:00:47.18    \nframe=   16 fps=0.3 q=30.7 size=     256KiB time=00:00:00.58 bitrate=3595.7kbits/s speed=0.0122x elapsed=0:00:47.70    \nframe=   17 fps=0.4 q=33.4 size=     256KiB time=00:00:00.62 bitrate=3356.0kbits/s speed=0.013x elapsed=0:00:48.21    \nframe=   17 fps=0.3 q=33.4 size=     256KiB time=00:00:00.62 bitrate=3356.0kbits/s speed=0.0128x elapsed=0:00:48.73    \nframe=   17 fps=0.3 q=33.4 size=     256KiB time=00:00:00.62 bitrate=3356.0kbits/s speed=0.0127x elapsed=0:00:49.25    \nframe=   18 fps=0.4 q=33.7 size=     256KiB time=00:00:00.66 bitrate=3146.3kbits/s speed=0.0134x elapsed=0:00:49.78    \nframe=   18 fps=0.4 q=33.7 size=     256KiB time=00:00:00.66 bitrate=3146.3kbits/s speed=0.0133x elapsed=0:00:50.29    \nframe=   18 fps=0.4 q=33.7 size=     256KiB time=00:00:00.66 bitrate=3146.3kbits/s speed=0.0131x elapsed=0:00:50.81    \nframe=   19 fps=0.4 q=28.6 size=     256KiB time=00:00:00.70 bitrate=2961.2kbits/s speed=0.0138x elapsed=0:00:51.32    \nframe=   20 fps=0.4 q=28.8 size=     256KiB time=00:00:00.75 bitrate=2796.7kbits/s speed=0.0145x elapsed=0:00:51.85    \nframe=   20 fps=0.4 q=28.8 size=     256KiB time=00:00:00.75 bitrate=2796.7kbits/s speed=0.0143x elapsed=0:00:52.37    \nframe=   21 fps=0.4 q=33.8 size=     256KiB time=00:00:00.79 bitrate=2649.5kbits/s speed=0.015x elapsed=0:00:52.87    \nframe=   21 fps=0.4 q=33.8 size=     256KiB time=00:00:00.79 bitrate=2649.5kbits/s speed=0.0148x elapsed=0:00:53.40    \nframe=   21 fps=0.4 q=33.8 size=     256KiB time=00:00:00.79 bitrate=2649.5kbits/s speed=0.0147x elapsed=0:00:53.90    \nframe=   21 fps=0.4 q=33.8 size=     256KiB time=00:00:00.79 bitrate=2649.5kbits/s speed=0.0145x elapsed=0:00:54.42    \nframe=   22 fps=0.4 q=33.4 size=     256KiB time=00:00:00.83 bitrate=2517.0kbits/s speed=0.0152x elapsed=0:00:54.94    \nframe=   22 fps=0.4 q=33.4 size=     256KiB time=00:00:00.83 bitrate=2517.0kbits/s speed=0.015x elapsed=0:00:55.46    \nframe=   22 fps=0.4 q=33.4 size=     256KiB time=00:00:00.83 bitrate=2517.0kbits/s speed=0.0149x elapsed=0:00:55.99    \nframe=   23 fps=0.4 q=32.9 size=     256KiB time=00:00:00.87 bitrate=2397.1kbits/s speed=0.0155x elapsed=0:00:56.51    \nframe=   23 fps=0.4 q=32.9 size=     256KiB time=00:00:00.87 bitrate=2397.1kbits/s speed=0.0153x elapsed=0:00:57.01    \nframe=   24 fps=0.4 q=28.6 size=     256KiB time=00:00:00.91 bitrate=2288.2kbits/s speed=0.0159x elapsed=0:00:57.53    \nframe=   24 fps=0.4 q=28.6 size=     256KiB time=00:00:00.91 bitrate=2288.2kbits/s speed=0.0158x elapsed=0:00:58.05    \nframe=   25 fps=0.4 q=28.7 size=     256KiB time=00:00:00.95 bitrate=2188.7kbits/s speed=0.0164x elapsed=0:00:58.59    \nframe=   25 fps=0.4 q=28.7 size=     256KiB time=00:00:00.95 bitrate=2188.7kbits/s speed=0.0162x elapsed=0:00:59.10    \nframe=   26 fps=0.4 q=33.0 size=     256KiB time=00:00:01.00 bitrate=2097.5kbits/s speed=0.0168x elapsed=0:00:59.61    \nframe=   26 fps=0.4 q=33.0 size=     256KiB time=00:00:01.00 bitrate=2097.5kbits/s speed=0.0166x elapsed=0:01:00.13    \nframe=   26 fps=0.4 q=33.0 size=     256KiB time=00:00:01.00 bitrate=2097.5kbits/s speed=0.0165x elapsed=0:01:00.63    \nframe=   26 fps=0.4 q=33.0 size=     256KiB time=00:00:01.00 bitrate=2097.5kbits/s speed=0.0163x elapsed=0:01:01.16    \nframe=   27 fps=0.4 q=33.1 size=     256KiB time=00:00:01.04 bitrate=2013.6kbits/s speed=0.0169x elapsed=0:01:01.67    \nframe=   27 fps=0.4 q=33.1 size=     256KiB time=00:00:01.04 bitrate=2013.6kbits/s speed=0.0167x elapsed=0:01:02.19    \nframe=   27 fps=0.4 q=33.1 size=     256KiB time=00:00:01.04 bitrate=2013.6kbits/s speed=0.0166x elapsed=0:01:02.71    \nframe=   28 fps=0.4 q=33.0 size=     256KiB time=00:00:01.08 bitrate=1936.2kbits/s speed=0.0171x elapsed=0:01:03.22    \nframe=   29 fps=0.5 q=28.4 size=     256KiB time=00:00:01.12 bitrate=1864.4kbits/s speed=0.0176x elapsed=0:01:03.74    \nframe=   29 fps=0.5 q=28.4 size=     256KiB time=00:00:01.12 bitrate=1864.4kbits/s speed=0.0175x elapsed=0:01:04.25    \nframe=   30 fps=0.5 q=30.3 size=     512KiB time=00:00:01.16 bitrate=3595.4kbits/s speed=0.018x elapsed=0:01:04.77    \nframe=   30 fps=0.5 q=30.3 size=     512KiB time=00:00:01.16 bitrate=3595.4kbits/s speed=0.0179x elapsed=0:01:05.29    \nframe=   30 fps=0.5 q=30.3 size=     512KiB time=00:00:01.16 bitrate=3595.4kbits/s speed=0.0177x elapsed=0:01:05.80    \nframe=   30 fps=0.5 q=30.3 size=     512KiB time=00:00:01.16 bitrate=3595.4kbits/s speed=0.0176x elapsed=0:01:06.31    \nframe=   31 fps=0.5 q=33.1 size=     512KiB time=00:00:01.20 bitrate=3471.4kbits/s speed=0.0181x elapsed=0:01:06.83    \nframe=   31 fps=0.5 q=33.1 size=     512KiB time=00:00:01.20 bitrate=3471.4kbits/s speed=0.0179x elapsed=0:01:07.35    \nframe=   31 fps=0.5 q=33.1 size=     512KiB time=00:00:01.20 bitrate=3471.4kbits/s speed=0.0178x elapsed=0:01:07.86    \nframe=   32 fps=0.5 q=32.9 size=     512KiB time=00:00:01.25 bitrate=3355.7kbits/s speed=0.0183x elapsed=0:01:08.38    \nframe=   32 fps=0.5 q=32.9 size=     512KiB time=00:00:01.25 bitrate=3355.7kbits/s speed=0.0181x elapsed=0:01:08.90    \nframe=   33 fps=0.5 q=28.2 size=     512KiB time=00:00:01.29 bitrate=3247.5kbits/s speed=0.0186x elapsed=0:01:09.41    \nframe=   33 fps=0.5 q=28.2 size=     512KiB time=00:00:01.29 bitrate=3247.5kbits/s speed=0.0185x elapsed=0:01:09.92    \nframe=   34 fps=0.5 q=30.1 size=     512KiB time=00:00:01.33 bitrate=3146.0kbits/s speed=0.0189x elapsed=0:01:10.44    \nframe=   34 fps=0.5 q=30.1 size=     512KiB time=00:00:01.33 bitrate=3146.0kbits/s speed=0.0188x elapsed=0:01:10.95    \nframe=   34 fps=0.5 q=30.1 size=     512KiB time=00:00:01.33 bitrate=3146.0kbits/s speed=0.0187x elapsed=0:01:11.47    \nframe=   34 fps=0.5 q=30.1 size=     512KiB time=00:00:01.33 bitrate=3146.0kbits/s speed=0.0185x elapsed=0:01:11.99    \nframe=   35 fps=0.5 q=32.9 size=     512KiB time=00:00:01.37 bitrate=3050.7kbits/s speed=0.019x elapsed=0:01:12.51    \nframe=   35 fps=0.5 q=32.9 size=     512KiB time=00:00:01.37 bitrate=3050.7kbits/s speed=0.0188x elapsed=0:01:13.03    \nframe=   36 fps=0.5 q=33.1 size=     512KiB time=00:00:01.41 bitrate=2960.9kbits/s speed=0.0193x elapsed=0:01:13.55    \nframe=   36 fps=0.5 q=33.1 size=     512KiB time=00:00:01.41 bitrate=2960.9kbits/s speed=0.0191x elapsed=0:01:14.06    \nframe=   37 fps=0.5 q=28.2 size=     512KiB time=00:00:01.45 bitrate=2876.3kbits/s speed=0.0196x elapsed=0:01:14.57    \nframe=   37 fps=0.5 q=28.2 size=     512KiB time=00:00:01.45 bitrate=2876.3kbits/s speed=0.0194x elapsed=0:01:15.09    \nframe=   38 fps=0.5 q=30.0 size=     512KiB time=00:00:01.50 bitrate=2796.4kbits/s speed=0.0198x elapsed=0:01:15.61    \nframe=   38 fps=0.5 q=30.0 size=     512KiB time=00:00:01.50 bitrate=2796.4kbits/s speed=0.0197x elapsed=0:01:16.13    \nframe=   38 fps=0.5 q=30.0 size=     512KiB time=00:00:01.50 bitrate=2796.4kbits/s speed=0.0196x elapsed=0:01:16.65    \nframe=   38 fps=0.5 q=30.0 size=     512KiB time=00:00:01.50 bitrate=2796.4kbits/s speed=0.0194x elapsed=0:01:17.16    \nframe=   39 fps=0.5 q=32.8 size=     512KiB time=00:00:01.54 bitrate=2720.9kbits/s speed=0.0198x elapsed=0:01:17.68    \nframe=   39 fps=0.5 q=32.8 size=     512KiB time=00:00:01.54 bitrate=2720.9kbits/s speed=0.0197x elapsed=0:01:18.18    \nframe=   40 fps=0.5 q=32.8 size=     512KiB time=00:00:01.58 bitrate=2649.3kbits/s speed=0.0201x elapsed=0:01:18.71    \nframe=   40 fps=0.5 q=32.8 size=     512KiB time=00:00:01.58 bitrate=2649.3kbits/s speed=0.02x elapsed=0:01:19.22    \nframe=   41 fps=0.5 q=28.1 size=     512KiB time=00:00:01.62 bitrate=2581.3kbits/s speed=0.0204x elapsed=0:01:19.74    \nframe=   42 fps=0.5 q=29.4 size=     768KiB time=00:00:01.66 bitrate=3775.1kbits/s speed=0.0208x elapsed=0:01:20.24    \nframe=   42 fps=0.5 q=29.4 size=     768KiB time=00:00:01.66 bitrate=3775.1kbits/s speed=0.0206x elapsed=0:01:20.76    \nframe=   42 fps=0.5 q=29.4 size=     768KiB time=00:00:01.66 bitrate=3775.1kbits/s speed=0.0205x elapsed=0:01:21.29    \nframe=   43 fps=0.5 q=32.7 size=     768KiB time=00:00:01.70 bitrate=3683.0kbits/s speed=0.0209x elapsed=0:01:21.79    \nframe=   43 fps=0.5 q=32.7 size=     768KiB time=00:00:01.70 bitrate=3683.0kbits/s speed=0.0208x elapsed=0:01:22.31    \nframe=   43 fps=0.5 q=32.7 size=     768KiB time=00:00:01.70 bitrate=3683.0kbits/s speed=0.0206x elapsed=0:01:22.83    \nframe=   44 fps=0.5 q=32.6 size=     768KiB time=00:00:01.75 bitrate=3595.3kbits/s speed=0.021x elapsed=0:01:23.34    \nframe=   44 fps=0.5 q=32.6 size=     768KiB time=00:00:01.75 bitrate=3595.3kbits/s speed=0.0209x elapsed=0:01:23.86    \nframe=   45 fps=0.5 q=28.0 size=     768KiB time=00:00:01.79 bitrate=3511.7kbits/s speed=0.0212x elapsed=0:01:24.38    \nframe=   46 fps=0.5 q=29.8 size=     768KiB time=00:00:01.83 bitrate=3431.9kbits/s speed=0.0216x elapsed=0:01:24.89    \nframe=   46 fps=0.5 q=29.8 size=     768KiB time=00:00:01.83 bitrate=3431.9kbits/s speed=0.0215x elapsed=0:01:25.40    \nframe=   46 fps=0.5 q=29.8 size=     768KiB time=00:00:01.83 bitrate=3431.9kbits/s speed=0.0213x elapsed=0:01:25.92    \nframe=   46 fps=0.5 q=29.8 size=     768KiB time=00:00:01.83 bitrate=3431.9kbits/s speed=0.0212x elapsed=0:01:26.44    \nframe=   47 fps=0.5 q=32.4 size=     768KiB time=00:00:01.87 bitrate=3355.6kbits/s speed=0.0216x elapsed=0:01:26.95    \nframe=   48 fps=0.5 q=32.5 size=     768KiB time=00:00:01.91 bitrate=3282.7kbits/s speed=0.0219x elapsed=0:01:27.48    \nframe=   48 fps=0.5 q=32.5 size=     768KiB time=00:00:01.91 bitrate=3282.7kbits/s speed=0.0218x elapsed=0:01:28.00    \nframe=   49 fps=0.6 q=27.9 size=     768KiB time=00:00:01.95 bitrate=3212.8kbits/s speed=0.0221x elapsed=0:01:28.52    \nframe=   49 fps=0.6 q=27.9 size=     768KiB time=00:00:01.95 bitrate=3212.8kbits/s speed=0.022x elapsed=0:01:29.02    \nframe=   50 fps=0.6 q=29.7 size=     768KiB time=00:00:02.00 bitrate=3145.9kbits/s speed=0.0223x elapsed=0:01:29.54    \nframe=   50 fps=0.6 q=29.7 size=     768KiB time=00:00:02.00 bitrate=3145.9kbits/s speed=0.0222x elapsed=0:01:30.06    \nframe=   51 fps=0.6 q=32.8 size=     768KiB time=00:00:02.04 bitrate=3081.7kbits/s speed=0.0225x elapsed=0:01:30.58    \nframe=   51 fps=0.6 q=32.8 size=     768KiB time=00:00:02.04 bitrate=3081.7kbits/s speed=0.0224x elapsed=0:01:31.10    \nframe=   51 fps=0.6 q=32.8 size=     768KiB time=00:00:02.04 bitrate=3081.7kbits/s speed=0.0223x elapsed=0:01:31.61    \nframe=   52 fps=0.6 q=32.5 size=     768KiB time=00:00:02.08 bitrate=3020.1kbits/s speed=0.0226x elapsed=0:01:32.12    \nframe=   53 fps=0.6 q=28.1 size=     768KiB time=00:00:02.12 bitrate=2960.9kbits/s speed=0.0229x elapsed=0:01:32.65    \nframe=   53 fps=0.6 q=28.1 size=     768KiB time=00:00:02.12 bitrate=2960.9kbits/s speed=0.0228x elapsed=0:01:33.16    \nframe=   54 fps=0.6 q=29.7 size=    1024KiB time=00:00:02.16 bitrate=3871.8kbits/s speed=0.0231x elapsed=0:01:33.68    \nframe=   54 fps=0.6 q=29.7 size=    1024KiB time=00:00:02.16 bitrate=3871.8kbits/s speed=0.023x elapsed=0:01:34.21    \nframe=   54 fps=0.6 q=29.7 size=    1024KiB time=00:00:02.16 bitrate=3871.8kbits/s speed=0.0229x elapsed=0:01:34.74    \nframe=   55 fps=0.6 q=32.5 size=    1024KiB time=00:00:02.20 bitrate=3798.8kbits/s speed=0.0232x elapsed=0:01:35.27    \nframe=   55 fps=0.6 q=32.5 size=    1024KiB time=00:00:02.20 bitrate=3798.8kbits/s speed=0.023x elapsed=0:01:35.81    \nframe=   56 fps=0.6 q=32.3 size=    1024KiB time=00:00:02.25 bitrate=3728.4kbits/s speed=0.0234x elapsed=0:01:36.32    \nframe=   56 fps=0.6 q=32.3 size=    1024KiB time=00:00:02.25 bitrate=3728.4kbits/s speed=0.0232x elapsed=0:01:36.85    \nframe=   56 fps=0.6 q=32.3 size=    1024KiB time=00:00:02.25 bitrate=3728.4kbits/s speed=0.0231x elapsed=0:01:37.38    \nframe=   56 fps=0.6 q=32.3 size=    1024KiB time=00:00:02.25 bitrate=3728.4kbits/s speed=0.023x elapsed=0:01:37.90    \nframe=   56 fps=0.6 q=32.3 size=    1024KiB time=00:00:02.25 bitrate=3728.4kbits/s speed=0.0229x elapsed=0:01:38.44    \nframe=   56 fps=0.6 q=32.3 size=    1024KiB time=00:00:02.25 bitrate=3728.4kbits/s speed=0.0227x elapsed=0:01:38.95    \nframe=   57 fps=0.6 q=28.0 size=    1024KiB time=00:00:02.29 bitrate=3660.6kbits/s speed=0.023x elapsed=0:01:39.48    \nframe=   57 fps=0.6 q=28.0 size=    1024KiB time=00:00:02.29 bitrate=3660.6kbits/s speed=0.0229x elapsed=0:01:40.01    \nframe=   57 fps=0.6 q=28.0 size=    1024KiB time=00:00:02.29 bitrate=3660.6kbits/s speed=0.0228x elapsed=0:01:40.55    \nframe=   57 fps=0.6 q=28.0 size=    1024KiB time=00:00:02.29 bitrate=3660.6kbits/s speed=0.0227x elapsed=0:01:41.09    \nframe=   57 fps=0.6 q=28.0 size=    1024KiB time=00:00:02.29 bitrate=3660.6kbits/s speed=0.0226x elapsed=0:01:41.61    \nframe=   58 fps=0.6 q=29.7 size=    1024KiB time=00:00:02.33 bitrate=3595.3kbits/s speed=0.0228x elapsed=0:01:42.15    \nframe=   58 fps=0.6 q=29.7 size=    1024KiB time=00:00:02.33 bitrate=3595.3kbits/s speed=0.0227x elapsed=0:01:42.68    \nframe=   58 fps=0.6 q=29.7 size=    1024KiB time=00:00:02.33 bitrate=3595.3kbits/s speed=0.0226x elapsed=0:01:43.20    \nframe=   59 fps=0.6 q=32.4 size=    1024KiB time=00:00:02.37 bitrate=3532.2kbits/s speed=0.0229x elapsed=0:01:43.73    \nframe=   59 fps=0.6 q=32.4 size=    1024KiB time=00:00:02.37 bitrate=3532.2kbits/s speed=0.0228x elapsed=0:01:44.24    \nframe=   59 fps=0.6 q=32.4 size=    1024KiB time=00:00:02.37 bitrate=3532.2kbits/s speed=0.0227x elapsed=0:01:44.77    \nframe=   59 fps=0.6 q=32.4 size=    1024KiB time=00:00:02.37 bitrate=3532.2kbits/s speed=0.0226x elapsed=0:01:45.30    \nframe=   59 fps=0.6 q=32.4 size=    1024KiB time=00:00:02.37 bitrate=3532.2kbits/s speed=0.0224x elapsed=0:01:45.83    \nframe=   59 fps=0.6 q=32.4 size=    1024KiB time=00:00:02.37 bitrate=3532.2kbits/s speed=0.0223x elapsed=0:01:46.36    \nframe=   59 fps=0.6 q=32.4 size=    1024KiB time=00:00:02.37 bitrate=3532.2kbits/s speed=0.0222x elapsed=0:01:46.90    \nframe=   59 fps=0.5 q=32.4 size=    1024KiB time=00:00:02.37 bitrate=3532.2kbits/s speed=0.0221x elapsed=0:01:47.43    \nframe=   60 fps=0.6 q=32.5 size=    1024KiB time=00:00:02.41 bitrate=3471.3kbits/s speed=0.0224x elapsed=0:01:47.98    \nframe=   60 fps=0.6 q=32.5 size=    1024KiB time=00:00:02.41 bitrate=3471.3kbits/s speed=0.0223x elapsed=0:01:48.50    \nframe=   61 fps=0.6 q=27.7 size=    1024KiB time=00:00:02.45 bitrate=3412.5kbits/s speed=0.0225x elapsed=0:01:49.02    \nframe=   61 fps=0.6 q=27.7 size=    1024KiB time=00:00:02.45 bitrate=3412.5kbits/s speed=0.0224x elapsed=0:01:49.54    \nframe=   62 fps=0.6 q=29.6 size=    1024KiB time=00:00:02.50 bitrate=3355.6kbits/s speed=0.0227x elapsed=0:01:50.06    \nframe=   62 fps=0.6 q=29.6 size=    1024KiB time=00:00:02.50 bitrate=3355.6kbits/s speed=0.0226x elapsed=0:01:50.58    \nframe=   62 fps=0.6 q=29.6 size=    1024KiB time=00:00:02.50 bitrate=3355.6kbits/s speed=0.0225x elapsed=0:01:51.10    \nframe=   62 fps=0.6 q=29.6 size=    1024KiB time=00:00:02.50 bitrate=3355.6kbits/s speed=0.0224x elapsed=0:01:51.63    \nframe=   62 fps=0.6 q=29.6 size=    1024KiB time=00:00:02.50 bitrate=3355.6kbits/s speed=0.0223x elapsed=0:01:52.18    \nframe=   62 fps=0.6 q=29.6 size=    1024KiB time=00:00:02.50 bitrate=3355.6kbits/s speed=0.0222x elapsed=0:01:52.70    \nframe=   62 fps=0.5 q=29.6 size=    1024KiB time=00:00:02.50 bitrate=3355.6kbits/s speed=0.0221x elapsed=0:01:53.24    \nframe=   62 fps=0.5 q=29.6 size=    1024KiB time=00:00:02.50 bitrate=3355.6kbits/s speed=0.022x elapsed=0:01:53.77    \nframe=   62 fps=0.5 q=29.6 size=    1024KiB time=00:00:02.50 bitrate=3355.6kbits/s speed=0.0219x elapsed=0:01:54.31    \nframe=   63 fps=0.5 q=32.2 size=    1024KiB time=00:00:02.54 bitrate=3300.6kbits/s speed=0.0221x elapsed=0:01:54.83    \nframe=   63 fps=0.5 q=32.2 size=    1024KiB time=00:00:02.54 bitrate=3300.6kbits/s speed=0.022x elapsed=0:01:55.35    \nframe=   64 fps=0.6 q=32.3 size=    1024KiB time=00:00:02.58 bitrate=3247.3kbits/s speed=0.0223x elapsed=0:01:55.89    \nframe=   64 fps=0.5 q=32.3 size=    1024KiB time=00:00:02.58 bitrate=3247.3kbits/s speed=0.0222x elapsed=0:01:56.41    \nframe=   64 fps=0.5 q=32.3 size=    1024KiB time=00:00:02.58 bitrate=3247.3kbits/s speed=0.0221x elapsed=0:01:56.96    \nframe=   64 fps=0.5 q=32.3 size=    1024KiB time=00:00:02.58 bitrate=3247.3kbits/s speed=0.022x elapsed=0:01:57.49    \nframe=   64 fps=0.5 q=32.3 size=    1024KiB time=00:00:02.58 bitrate=3247.3kbits/s speed=0.0219x elapsed=0:01:58.02    \nframe=   64 fps=0.5 q=32.3 size=    1024KiB time=00:00:02.58 bitrate=3247.3kbits/s speed=0.0218x elapsed=0:01:58.56    \nframe=   64 fps=0.5 q=32.3 size=    1024KiB time=00:00:02.58 bitrate=3247.3kbits/s speed=0.0217x elapsed=0:01:59.09    \nframe=   64 fps=0.5 q=32.3 size=    1024KiB time=00:00:02.58 bitrate=3247.3kbits/s speed=0.0216x elapsed=0:01:59.64    \nframe=   65 fps=0.5 q=27.7 size=    1024KiB time=00:00:02.62 bitrate=3195.8kbits/s speed=0.0218x elapsed=0:02:00.17    \nframe=   65 fps=0.5 q=27.7 size=    1024KiB time=00:00:02.62 bitrate=3195.8kbits/s speed=0.0217x elapsed=0:02:00.70    \nframe=   66 fps=0.5 q=29.6 size=    1024KiB time=00:00:02.66 bitrate=3145.9kbits/s speed=0.022x elapsed=0:02:01.24    \nframe=   66 fps=0.5 q=29.6 size=    1024KiB time=00:00:02.66 bitrate=3145.9kbits/s speed=0.0219x elapsed=0:02:01.76    \nframe=   66 fps=0.5 q=29.6 size=    1024KiB time=00:00:02.66 bitrate=3145.9kbits/s speed=0.0218x elapsed=0:02:02.30    \nframe=   66 fps=0.5 q=29.6 size=    1024KiB time=00:00:02.66 bitrate=3145.9kbits/s speed=0.0217x elapsed=0:02:02.83    \nframe=   67 fps=0.5 q=32.3 size=    1280KiB time=00:00:02.70 bitrate=3871.8kbits/s speed=0.022x elapsed=0:02:03.35    \nframe=   67 fps=0.5 q=32.3 size=    1280KiB time=00:00:02.70 bitrate=3871.8kbits/s speed=0.0219x elapsed=0:02:03.87    \nframe=   68 fps=0.5 q=32.2 size=    1280KiB time=00:00:02.75 bitrate=3813.1kbits/s speed=0.0221x elapsed=0:02:04.39    \nframe=   68 fps=0.5 q=32.2 size=    1280KiB time=00:00:02.75 bitrate=3813.1kbits/s speed=0.022x elapsed=0:02:04.91    \nframe=   68 fps=0.5 q=32.2 size=    1280KiB time=00:00:02.75 bitrate=3813.1kbits/s speed=0.0219x elapsed=0:02:05.43    \nframe=   68 fps=0.5 q=32.2 size=    1280KiB time=00:00:02.75 bitrate=3813.1kbits/s speed=0.0218x elapsed=0:02:05.95    \nframe=   68 fps=0.5 q=32.2 size=    1280KiB time=00:00:02.75 bitrate=3813.1kbits/s speed=0.0217x elapsed=0:02:06.48    \nframe=   68 fps=0.5 q=32.2 size=    1280KiB time=00:00:02.75 bitrate=3813.1kbits/s speed=0.0217x elapsed=0:02:07.00    \nframe=   68 fps=0.5 q=32.2 size=    1280KiB time=00:00:02.75 bitrate=3813.1kbits/s speed=0.0216x elapsed=0:02:07.52    \nframe=   68 fps=0.5 q=32.2 size=    1280KiB time=00:00:02.75 bitrate=3813.1kbits/s speed=0.0215x elapsed=0:02:08.04    \nframe=   69 fps=0.5 q=27.7 size=    1280KiB time=00:00:02.79 bitrate=3756.2kbits/s speed=0.0217x elapsed=0:02:08.56    \nframe=   69 fps=0.5 q=27.7 size=    1280KiB time=00:00:02.79 bitrate=3756.2kbits/s speed=0.0216x elapsed=0:02:09.08    \nframe=   69 fps=0.5 q=27.7 size=    1280KiB time=00:00:02.79 bitrate=3756.2kbits/s speed=0.0215x elapsed=0:02:09.60    \nframe=   69 fps=0.5 q=27.7 size=    1280KiB time=00:00:02.79 bitrate=3756.2kbits/s speed=0.0215x elapsed=0:02:10.11    \nframe=   69 fps=0.5 q=27.7 size=    1280KiB time=00:00:02.79 bitrate=3756.2kbits/s speed=0.0214x elapsed=0:02:10.64    \nframe=   70 fps=0.5 q=29.5 size=    1280KiB time=00:00:02.83 bitrate=3701.0kbits/s speed=0.0216x elapsed=0:02:11.19    \nframe=   70 fps=0.5 q=29.5 size=    1280KiB time=00:00:02.83 bitrate=3701.0kbits/s speed=0.0215x elapsed=0:02:11.74    \nframe=   70 fps=0.5 q=29.5 size=    1280KiB time=00:00:02.83 bitrate=3701.0kbits/s speed=0.0214x elapsed=0:02:12.25    \nframe=   70 fps=0.5 q=29.5 size=    1280KiB time=00:00:02.83 bitrate=3701.0kbits/s speed=0.0213x elapsed=0:02:12.76    \nframe=   71 fps=0.5 q=32.3 size=    1280KiB time=00:00:02.87 bitrate=3647.3kbits/s speed=0.0216x elapsed=0:02:13.29    \nframe=   71 fps=0.5 q=32.3 size=    1280KiB time=00:00:02.87 bitrate=3647.3kbits/s speed=0.0215x elapsed=0:02:13.82    \nframe=   71 fps=0.5 q=32.3 size=    1280KiB time=00:00:02.87 bitrate=3647.3kbits/s speed=0.0214x elapsed=0:02:14.36    \nframe=   71 fps=0.5 q=32.3 size=    1280KiB time=00:00:02.87 bitrate=3647.3kbits/s speed=0.0213x elapsed=0:02:14.87    \nframe=   71 fps=0.5 q=32.3 size=    1280KiB time=00:00:02.87 bitrate=3647.3kbits/s speed=0.0212x elapsed=0:02:15.40    \nframe=   71 fps=0.5 q=32.3 size=    1280KiB time=00:00:02.87 bitrate=3647.3kbits/s speed=0.0212x elapsed=0:02:15.92    \nframe=   71 fps=0.5 q=32.3 size=    1280KiB time=00:00:02.87 bitrate=3647.3kbits/s speed=0.0211x elapsed=0:02:16.43    \nframe=   72 fps=0.5 q=32.1 size=    1280KiB time=00:00:02.91 bitrate=3595.2kbits/s speed=0.0213x elapsed=0:02:16.95    \nframe=   72 fps=0.5 q=32.1 size=    1280KiB time=00:00:02.91 bitrate=3595.2kbits/s speed=0.0212x elapsed=0:02:17.47    \nframe=   73 fps=0.5 q=27.7 size=    1280KiB time=00:00:02.95 bitrate=3544.6kbits/s speed=0.0214x elapsed=0:02:17.98    \nframe=   74 fps=0.5 q=29.6 size=    1280KiB time=00:00:03.00 bitrate=3495.4kbits/s speed=0.0217x elapsed=0:02:18.51    \nframe=   74 fps=0.5 q=29.6 size=    1280KiB time=00:00:03.00 bitrate=3495.4kbits/s speed=0.0216x elapsed=0:02:19.02    \nframe=   75 fps=0.5 q=32.3 size=    1280KiB time=00:00:03.04 bitrate=3447.5kbits/s speed=0.0218x elapsed=0:02:19.53    \nframe=   75 fps=0.5 q=32.3 size=    1280KiB time=00:00:03.04 bitrate=3447.5kbits/s speed=0.0217x elapsed=0:02:20.04    \nframe=   76 fps=0.5 q=32.2 size=    1280KiB time=00:00:03.08 bitrate=3400.9kbits/s speed=0.0219x elapsed=0:02:20.56    \nframe=   76 fps=0.5 q=32.2 size=    1280KiB time=00:00:03.08 bitrate=3400.9kbits/s speed=0.0219x elapsed=0:02:21.08    \nframe=   77 fps=0.5 q=27.3 size=    1280KiB time=00:00:03.12 bitrate=3355.6kbits/s speed=0.0221x elapsed=0:02:21.59    \nframe=   77 fps=0.5 q=27.3 size=    1280KiB time=00:00:03.12 bitrate=3355.6kbits/s speed=0.022x elapsed=0:02:22.12    \nframe=   78 fps=0.5 q=29.3 size=    1280KiB time=00:00:03.16 bitrate=3311.4kbits/s speed=0.0222x elapsed=0:02:22.63    \nframe=   79 fps=0.6 q=32.1 size=    1280KiB time=00:00:03.20 bitrate=3268.4kbits/s speed=0.0224x elapsed=0:02:23.14    \nframe=   79 fps=0.5 q=32.1 size=    1280KiB time=00:00:03.20 bitrate=3268.4kbits/s speed=0.0223x elapsed=0:02:23.65    \nframe=   79 fps=0.5 q=32.1 size=    1280KiB time=00:00:03.20 bitrate=3268.4kbits/s speed=0.0223x elapsed=0:02:24.17    \nframe=   79 fps=0.5 q=32.1 size=    1280KiB time=00:00:03.20 bitrate=3268.4kbits/s speed=0.0222x elapsed=0:02:24.69    \nframe=   79 fps=0.5 q=32.1 size=    1280KiB time=00:00:03.20 bitrate=3268.4kbits/s speed=0.0221x elapsed=0:02:25.20    \nframe=   80 fps=0.5 q=32.0 size=    1536KiB time=00:00:03.25 bitrate=3871.8kbits/s speed=0.0223x elapsed=0:02:25.72    \nframe=   80 fps=0.5 q=32.0 size=    1536KiB time=00:00:03.25 bitrate=3871.8kbits/s speed=0.0222x elapsed=0:02:26.25    \nframe=   80 fps=0.5 q=32.0 size=    1536KiB time=00:00:03.25 bitrate=3871.8kbits/s speed=0.0221x elapsed=0:02:26.77    \nframe=   80 fps=0.5 q=32.0 size=    1536KiB time=00:00:03.25 bitrate=3871.8kbits/s speed=0.0221x elapsed=0:02:27.28    \nframe=   81 fps=0.5 q=27.4 size=    1536KiB time=00:00:03.29 bitrate=3822.8kbits/s speed=0.0223x elapsed=0:02:27.80    \nframe=   81 fps=0.5 q=27.4 size=    1536KiB time=00:00:03.29 bitrate=3822.8kbits/s speed=0.0222x elapsed=0:02:28.31    \nframe=   81 fps=0.5 q=27.4 size=    1536KiB time=00:00:03.29 bitrate=3822.8kbits/s speed=0.0221x elapsed=0:02:28.82    \nframe=   82 fps=0.5 q=29.2 size=    1536KiB time=00:00:03.33 bitrate=3775.0kbits/s speed=0.0223x elapsed=0:02:29.34    \nframe=   82 fps=0.5 q=29.2 size=    1536KiB time=00:00:03.33 bitrate=3775.0kbits/s speed=0.0222x elapsed=0:02:29.85    \nframe=   82 fps=0.5 q=29.2 size=    1536KiB time=00:00:03.33 bitrate=3775.0kbits/s speed=0.0222x elapsed=0:02:30.38    \nframe=   82 fps=0.5 q=29.2 size=    1536KiB time=00:00:03.33 bitrate=3775.0kbits/s speed=0.0221x elapsed=0:02:30.90    \nframe=   82 fps=0.5 q=29.2 size=    1536KiB time=00:00:03.33 bitrate=3775.0kbits/s speed=0.022x elapsed=0:02:31.44    \nframe=   83 fps=0.5 q=32.2 size=    1536KiB time=00:00:03.37 bitrate=3728.4kbits/s speed=0.0222x elapsed=0:02:31.97    \nframe=   83 fps=0.5 q=32.2 size=    1536KiB time=00:00:03.37 bitrate=3728.4kbits/s speed=0.0221x elapsed=0:02:32.50    \nframe=   83 fps=0.5 q=32.2 size=    1536KiB time=00:00:03.37 bitrate=3728.4kbits/s speed=0.0221x elapsed=0:02:33.02    \nframe=   83 fps=0.5 q=32.2 size=    1536KiB time=00:00:03.37 bitrate=3728.4kbits/s speed=0.022x elapsed=0:02:33.54    \nframe=   83 fps=0.5 q=32.2 size=    1536KiB time=00:00:03.37 bitrate=3728.4kbits/s speed=0.0219x elapsed=0:02:34.04    \nframe=   84 fps=0.5 q=32.0 size=    1536KiB time=00:00:03.41 bitrate=3682.9kbits/s speed=0.0221x elapsed=0:02:34.59    \nframe=   84 fps=0.5 q=32.0 size=    1536KiB time=00:00:03.41 bitrate=3682.9kbits/s speed=0.022x elapsed=0:02:35.12    \nframe=   84 fps=0.5 q=32.0 size=    1536KiB time=00:00:03.41 bitrate=3682.9kbits/s speed=0.022x elapsed=0:02:35.64    \nframe=   84 fps=0.5 q=32.0 size=    1536KiB time=00:00:03.41 bitrate=3682.9kbits/s speed=0.0219x elapsed=0:02:36.16    \nframe=   84 fps=0.5 q=32.0 size=    1536KiB time=00:00:03.41 bitrate=3682.9kbits/s speed=0.0218x elapsed=0:02:36.68    \nframe=   85 fps=0.5 q=27.0 size=    1536KiB time=00:00:03.45 bitrate=3638.5kbits/s speed=0.022x elapsed=0:02:37.20    \nframe=   85 fps=0.5 q=27.0 size=    1536KiB time=00:00:03.45 bitrate=3638.5kbits/s speed=0.0219x elapsed=0:02:37.78    \nframe=   86 fps=0.5 q=30.4 size=    1536KiB time=00:00:03.50 bitrate=3595.2kbits/s speed=0.0221x elapsed=0:02:38.29    \nframe=   86 fps=0.5 q=30.4 size=    1536KiB time=00:00:03.50 bitrate=3595.2kbits/s speed=0.022x elapsed=0:02:38.83    \nframe=   86 fps=0.5 q=30.4 size=    1536KiB time=00:00:03.50 bitrate=3595.2kbits/s speed=0.022x elapsed=0:02:39.34    \nframe=   87 fps=0.5 q=32.0 size=    1536KiB time=00:00:03.54 bitrate=3552.9kbits/s speed=0.0222x elapsed=0:02:39.87    \nframe=   87 fps=0.5 q=32.0 size=    1536KiB time=00:00:03.54 bitrate=3552.9kbits/s speed=0.0221x elapsed=0:02:40.39    \nframe=   87 fps=0.5 q=32.0 size=    1536KiB time=00:00:03.54 bitrate=3552.9kbits/s speed=0.022x elapsed=0:02:40.90    \nframe=   87 fps=0.5 q=32.0 size=    1536KiB time=00:00:03.54 bitrate=3552.9kbits/s speed=0.0219x elapsed=0:02:41.42    \nframe=   88 fps=0.5 q=31.6 size=    1536KiB time=00:00:03.58 bitrate=3511.6kbits/s speed=0.0221x elapsed=0:02:41.96    \nframe=   88 fps=0.5 q=31.6 size=    1536KiB time=00:00:03.58 bitrate=3511.6kbits/s speed=0.022x elapsed=0:02:42.51    \nframe=   89 fps=0.5 q=31.5 size=    1536KiB time=00:00:03.62 bitrate=3471.2kbits/s speed=0.0222x elapsed=0:02:43.04    \nframe=   89 fps=0.5 q=31.5 size=    1536KiB time=00:00:03.62 bitrate=3471.2kbits/s speed=0.0222x elapsed=0:02:43.57    \nframe=   90 fps=0.5 q=26.9 size=    1536KiB time=00:00:03.66 bitrate=3431.8kbits/s speed=0.0223x elapsed=0:02:44.10    \nframe=   90 fps=0.5 q=26.9 size=    1536KiB time=00:00:03.66 bitrate=3431.8kbits/s speed=0.0223x elapsed=0:02:44.62    \nframe=   90 fps=0.5 q=26.9 size=    1536KiB time=00:00:03.66 bitrate=3431.8kbits/s speed=0.0222x elapsed=0:02:45.14    \nframe=   90 fps=0.5 q=26.9 size=    1536KiB time=00:00:03.66 bitrate=3431.8kbits/s speed=0.0221x elapsed=0:02:45.68    \nframe=   91 fps=0.5 q=27.2 size=    1536KiB time=00:00:03.70 bitrate=3393.2kbits/s speed=0.0223x elapsed=0:02:46.18    \nframe=   91 fps=0.5 q=27.2 size=    1536KiB time=00:00:03.70 bitrate=3393.2kbits/s speed=0.0222x elapsed=0:02:46.72    \nframe=   91 fps=0.5 q=27.2 size=    1536KiB time=00:00:03.70 bitrate=3393.2kbits/s speed=0.0222x elapsed=0:02:47.26    \nframe=   91 fps=0.5 q=27.2 size=    1536KiB time=00:00:03.70 bitrate=3393.2kbits/s speed=0.0221x elapsed=0:02:47.79    \nframe=   92 fps=0.5 q=32.0 size=    1792KiB time=00:00:03.75 bitrate=3914.8kbits/s speed=0.0223x elapsed=0:02:48.31    \nframe=   92 fps=0.5 q=32.0 size=    1792KiB time=00:00:03.75 bitrate=3914.8kbits/s speed=0.0222x elapsed=0:02:48.84    \nframe=   92 fps=0.5 q=32.0 size=    1792KiB time=00:00:03.75 bitrate=3914.8kbits/s speed=0.0221x elapsed=0:02:49.36    \nframe=   92 fps=0.5 q=32.0 size=    1792KiB time=00:00:03.75 bitrate=3914.8kbits/s speed=0.0221x elapsed=0:02:49.88    \nframe=   93 fps=0.5 q=31.9 size=    1792KiB time=00:00:03.79 bitrate=3871.8kbits/s speed=0.0222x elapsed=0:02:50.42    \nframe=   93 fps=0.5 q=31.9 size=    1792KiB time=00:00:03.79 bitrate=3871.8kbits/s speed=0.0222x elapsed=0:02:50.96    \nframe=   94 fps=0.5 q=32.2 size=    1792KiB time=00:00:03.83 bitrate=3829.7kbits/s speed=0.0224x elapsed=0:02:51.48    \nframe=   94 fps=0.5 q=32.2 size=    1792KiB time=00:00:03.83 bitrate=3829.7kbits/s speed=0.0223x elapsed=0:02:52.01    \nframe=   94 fps=0.5 q=32.2 size=    1792KiB time=00:00:03.83 bitrate=3829.7kbits/s speed=0.0222x elapsed=0:02:52.53    \nframe=   94 fps=0.5 q=32.2 size=    1792KiB time=00:00:03.83 bitrate=3829.7kbits/s speed=0.0222x elapsed=0:02:53.05    \nframe=   95 fps=0.5 q=27.3 size=    1792KiB time=00:00:03.87 bitrate=3788.5kbits/s speed=0.0223x elapsed=0:02:53.56    \nframe=   96 fps=0.6 q=29.6 size=    1792KiB time=00:00:03.91 bitrate=3748.2kbits/s speed=0.0225x elapsed=0:02:54.08    \nframe=   96 fps=0.5 q=29.6 size=    1792KiB time=00:00:03.91 bitrate=3748.2kbits/s speed=0.0224x elapsed=0:02:54.61    \nframe=   97 fps=0.6 q=31.9 size=    1792KiB time=00:00:03.95 bitrate=3708.7kbits/s speed=0.0226x elapsed=0:02:55.13    \nframe=   97 fps=0.6 q=31.9 size=    1792KiB time=00:00:03.95 bitrate=3708.7kbits/s speed=0.0225x elapsed=0:02:55.64    \nframe=   98 fps=0.6 q=32.2 size=    1792KiB time=00:00:04.00 bitrate=3670.1kbits/s speed=0.0227x elapsed=0:02:56.15    \nframe=   98 fps=0.6 q=32.2 size=    1792KiB time=00:00:04.00 bitrate=3670.1kbits/s speed=0.0226x elapsed=0:02:56.67    \nframe=   99 fps=0.6 q=27.4 size=    1792KiB time=00:00:04.04 bitrate=3632.3kbits/s speed=0.0228x elapsed=0:02:57.18    \nframe=  100 fps=0.6 q=29.5 size=    1792KiB time=00:00:04.08 bitrate=3595.2kbits/s speed=0.023x elapsed=0:02:57.70    \nframe=  101 fps=0.6 q=31.9 size=    1792KiB time=00:00:04.12 bitrate=3558.9kbits/s speed=0.0231x elapsed=0:02:58.21    \nframe=  101 fps=0.6 q=31.9 size=    1792KiB time=00:00:04.12 bitrate=3558.9kbits/s speed=0.0231x elapsed=0:02:58.73    \nframe=  101 fps=0.6 q=31.9 size=    1792KiB time=00:00:04.12 bitrate=3558.9kbits/s speed=0.023x elapsed=0:02:59.25    \nframe=  101 fps=0.6 q=31.9 size=    1792KiB time=00:00:04.12 bitrate=3558.9kbits/s speed=0.0229x elapsed=0:02:59.83    \nframe=  101 fps=0.6 q=31.9 size=    1792KiB time=00:00:04.12 bitrate=3558.9kbits/s speed=0.0229x elapsed=0:03:00.38    \nframe=  102 fps=0.6 q=32.3 size=    1792KiB time=00:00:04.16 bitrate=3523.3kbits/s speed=0.023x elapsed=0:03:00.94    \nframe=  102 fps=0.6 q=32.3 size=    1792KiB time=00:00:04.16 bitrate=3523.3kbits/s speed=0.023x elapsed=0:03:01.46    \nframe=  102 fps=0.6 q=32.3 size=    1792KiB time=00:00:04.16 bitrate=3523.3kbits/s speed=0.0229x elapsed=0:03:02.03    \nframe=  102 fps=0.6 q=32.3 size=    1792KiB time=00:00:04.16 bitrate=3523.3kbits/s speed=0.0228x elapsed=0:03:02.56    \nframe=  102 fps=0.6 q=32.3 size=    1792KiB time=00:00:04.16 bitrate=3523.3kbits/s speed=0.0228x elapsed=0:03:03.11    \nframe=  103 fps=0.6 q=27.1 size=    1792KiB time=00:00:04.20 bitrate=3488.4kbits/s speed=0.0229x elapsed=0:03:03.66    \nframe=  103 fps=0.6 q=27.1 size=    1792KiB time=00:00:04.20 bitrate=3488.4kbits/s speed=0.0228x elapsed=0:03:04.19    \nframe=  104 fps=0.6 q=29.5 size=    2048KiB time=00:00:04.25 bitrate=3947.7kbits/s speed=0.023x elapsed=0:03:04.70    \nframe=  104 fps=0.6 q=29.5 size=    2048KiB time=00:00:04.25 bitrate=3947.7kbits/s speed=0.0229x elapsed=0:03:05.22    \nframe=  105 fps=0.6 q=32.0 size=    2048KiB time=00:00:04.29 bitrate=3909.3kbits/s speed=0.0231x elapsed=0:03:05.74    \nframe=  105 fps=0.6 q=32.0 size=    2048KiB time=00:00:04.29 bitrate=3909.3kbits/s speed=0.023x elapsed=0:03:06.25    \nframe=  106 fps=0.6 q=31.7 size=    2048KiB time=00:00:04.33 bitrate=3871.7kbits/s speed=0.0232x elapsed=0:03:06.77    \nframe=  107 fps=0.6 q=27.1 size=    2048KiB time=00:00:04.37 bitrate=3834.9kbits/s speed=0.0234x elapsed=0:03:07.28    \nframe=  108 fps=0.6 q=29.2 size=    2048KiB time=00:00:04.41 bitrate=3798.7kbits/s speed=0.0235x elapsed=0:03:07.80    \nframe=  108 fps=0.6 q=29.2 size=    2048KiB time=00:00:04.41 bitrate=3798.7kbits/s speed=0.0235x elapsed=0:03:08.31    \nframe=  108 fps=0.6 q=29.2 size=    2048KiB time=00:00:04.41 bitrate=3798.7kbits/s speed=0.0234x elapsed=0:03:08.83    \nframe=  109 fps=0.6 q=31.8 size=    2048KiB time=00:00:04.45 bitrate=3763.2kbits/s speed=0.0235x elapsed=0:03:09.34    \nframe=  109 fps=0.6 q=31.8 size=    2048KiB time=00:00:04.45 bitrate=3763.2kbits/s speed=0.0235x elapsed=0:03:09.85    \nframe=  110 fps=0.6 q=31.9 size=    2048KiB time=00:00:04.50 bitrate=3728.3kbits/s speed=0.0236x elapsed=0:03:10.37    \nframe=  111 fps=0.6 q=27.1 size=    2048KiB time=00:00:04.54 bitrate=3694.1kbits/s speed=0.0238x elapsed=0:03:10.89    \nframe=  111 fps=0.6 q=27.1 size=    2048KiB time=00:00:04.54 bitrate=3694.1kbits/s speed=0.0237x elapsed=0:03:11.40    \nframe=  112 fps=0.6 q=29.2 size=    2048KiB time=00:00:04.58 bitrate=3660.6kbits/s speed=0.0239x elapsed=0:03:11.93    \nframe=  112 fps=0.6 q=29.2 size=    2048KiB time=00:00:04.58 bitrate=3660.6kbits/s speed=0.0238x elapsed=0:03:12.43    \nframe=  112 fps=0.6 q=29.2 size=    2048KiB time=00:00:04.58 bitrate=3660.6kbits/s speed=0.0238x elapsed=0:03:12.97    \nframe=  113 fps=0.6 q=31.8 size=    2048KiB time=00:00:04.62 bitrate=3627.6kbits/s speed=0.0239x elapsed=0:03:13.48    \nframe=  114 fps=0.6 q=31.9 size=    2048KiB time=00:00:04.66 bitrate=3595.2kbits/s speed=0.0241x elapsed=0:03:13.99    \nframe=  114 fps=0.6 q=31.9 size=    2048KiB time=00:00:04.66 bitrate=3595.2kbits/s speed=0.024x elapsed=0:03:14.51    \nframe=  116 fps=0.6 q=29.2 size=    2048KiB time=00:00:04.75 bitrate=3532.1kbits/s speed=0.0244x elapsed=0:03:15.04    \nframe=  116 fps=0.6 q=29.2 size=    2048KiB time=00:00:04.75 bitrate=3532.1kbits/s speed=0.0243x elapsed=0:03:15.56    \nframe=  116 fps=0.6 q=29.2 size=    2048KiB time=00:00:04.75 bitrate=3532.1kbits/s speed=0.0242x elapsed=0:03:16.08    \nframe=  117 fps=0.6 q=31.9 size=    2304KiB time=00:00:04.79 bitrate=3939.1kbits/s speed=0.0244x elapsed=0:03:16.59    \nframe=  117 fps=0.6 q=31.9 size=    2304KiB time=00:00:04.79 bitrate=3939.1kbits/s speed=0.0243x elapsed=0:03:17.12    \nframe=  118 fps=0.6 q=31.8 size=    2304KiB time=00:00:04.83 bitrate=3905.1kbits/s speed=0.0245x elapsed=0:03:17.62    \nframe=  118 fps=0.6 q=31.8 size=    2304KiB time=00:00:04.83 bitrate=3905.1kbits/s speed=0.0244x elapsed=0:03:18.15    \nframe=  119 fps=0.6 q=27.2 size=    2304KiB time=00:00:04.87 bitrate=3871.7kbits/s speed=0.0245x elapsed=0:03:18.67    \nframe=  120 fps=0.6 q=29.4 size=    2304KiB time=00:00:04.91 bitrate=3838.9kbits/s speed=0.0247x elapsed=0:03:19.19    \nframe=  120 fps=0.6 q=29.4 size=    2304KiB time=00:00:04.91 bitrate=3838.9kbits/s speed=0.0246x elapsed=0:03:19.70    \nframe=  121 fps=0.6 q=32.0 size=    2304KiB time=00:00:04.95 bitrate=3806.7kbits/s speed=0.0248x elapsed=0:03:20.21    \nframe=  121 fps=0.6 q=32.0 size=    2304KiB time=00:00:04.95 bitrate=3806.7kbits/s speed=0.0247x elapsed=0:03:20.74    \nframe=  122 fps=0.6 q=32.3 size=    2304KiB time=00:00:05.00 bitrate=3774.9kbits/s speed=0.0248x elapsed=0:03:21.26    \nframe=  122 fps=0.6 q=32.3 size=    2304KiB time=00:00:05.00 bitrate=3774.9kbits/s speed=0.0248x elapsed=0:03:21.79    \nframe=  123 fps=0.6 q=27.0 size=    2304KiB time=00:00:05.04 bitrate=3743.7kbits/s speed=0.0249x elapsed=0:03:22.29    \nframe=  124 fps=0.6 q=29.3 size=    2304KiB time=00:00:05.08 bitrate=3713.1kbits/s speed=0.0251x elapsed=0:03:22.81    \nframe=  124 fps=0.6 q=29.3 size=    2304KiB time=00:00:05.08 bitrate=3713.1kbits/s speed=0.025x elapsed=0:03:23.32    \nframe=  125 fps=0.6 q=32.0 size=    2304KiB time=00:00:05.12 bitrate=3682.9kbits/s speed=0.0251x elapsed=0:03:23.84    \nframe=  125 fps=0.6 q=32.0 size=    2304KiB time=00:00:05.12 bitrate=3682.9kbits/s speed=0.0251x elapsed=0:03:24.36    \nframe=  126 fps=0.6 q=32.0 size=    2304KiB time=00:00:05.16 bitrate=3653.2kbits/s speed=0.0252x elapsed=0:03:24.88    \nframe=  126 fps=0.6 q=32.0 size=    2304KiB time=00:00:05.16 bitrate=3653.2kbits/s speed=0.0252x elapsed=0:03:25.38    \nframe=  127 fps=0.6 q=26.9 size=    2304KiB time=00:00:05.20 bitrate=3623.9kbits/s speed=0.0253x elapsed=0:03:25.91    \nframe=  128 fps=0.6 q=29.0 size=    2304KiB time=00:00:05.25 bitrate=3595.2kbits/s speed=0.0254x elapsed=0:03:26.43    \nframe=  128 fps=0.6 q=29.0 size=    2304KiB time=00:00:05.25 bitrate=3595.2kbits/s speed=0.0254x elapsed=0:03:26.93    \nframe=  129 fps=0.6 q=31.8 size=    2560KiB time=00:00:05.29 bitrate=3963.2kbits/s speed=0.0255x elapsed=0:03:27.45    \nframe=  129 fps=0.6 q=31.8 size=    2560KiB time=00:00:05.29 bitrate=3963.2kbits/s speed=0.0254x elapsed=0:03:27.97    \nframe=  129 fps=0.6 q=31.8 size=    2560KiB time=00:00:05.29 bitrate=3963.2kbits/s speed=0.0254x elapsed=0:03:28.48    \nframe=  130 fps=0.6 q=32.1 size=    2560KiB time=00:00:05.33 bitrate=3932.2kbits/s speed=0.0255x elapsed=0:03:28.99    \nframe=  130 fps=0.6 q=32.1 size=    2560KiB time=00:00:05.33 bitrate=3932.2kbits/s speed=0.0255x elapsed=0:03:29.51    \nframe=  131 fps=0.6 q=27.1 size=    2560KiB time=00:00:05.37 bitrate=3901.7kbits/s speed=0.0256x elapsed=0:03:30.04    \nframe=  132 fps=0.6 q=29.1 size=    2560KiB time=00:00:05.41 bitrate=3871.7kbits/s speed=0.0257x elapsed=0:03:30.56    \nframe=  132 fps=0.6 q=29.1 size=    2560KiB time=00:00:05.41 bitrate=3871.7kbits/s speed=0.0257x elapsed=0:03:31.08    \nframe=  133 fps=0.6 q=31.8 size=    2560KiB time=00:00:05.45 bitrate=3842.2kbits/s speed=0.0258x elapsed=0:03:31.59    \nframe=  133 fps=0.6 q=31.8 size=    2560KiB time=00:00:05.45 bitrate=3842.2kbits/s speed=0.0257x elapsed=0:03:32.11    \nframe=  134 fps=0.6 q=31.7 size=    2560KiB time=00:00:05.50 bitrate=3813.1kbits/s speed=0.0259x elapsed=0:03:32.62    \nframe=  134 fps=0.6 q=31.7 size=    2560KiB time=00:00:05.50 bitrate=3813.1kbits/s speed=0.0258x elapsed=0:03:33.14    \nframe=  135 fps=0.6 q=27.7 size=    2560KiB time=00:00:05.54 bitrate=3784.4kbits/s speed=0.0259x elapsed=0:03:33.68    \nframe=  136 fps=0.6 q=29.0 size=    2560KiB time=00:00:05.58 bitrate=3756.2kbits/s speed=0.0261x elapsed=0:03:34.20    \nframe=  137 fps=0.6 q=31.4 size=    2560KiB time=00:00:05.62 bitrate=3728.3kbits/s speed=0.0262x elapsed=0:03:34.72    \nframe=  137 fps=0.6 q=31.4 size=    2560KiB time=00:00:05.62 bitrate=3728.3kbits/s speed=0.0261x elapsed=0:03:35.24    \nframe=  138 fps=0.6 q=31.6 size=    2560KiB time=00:00:05.66 bitrate=3700.9kbits/s speed=0.0263x elapsed=0:03:35.75    \nframe=  139 fps=0.6 q=29.5 size=    2560KiB time=00:00:05.70 bitrate=3673.9kbits/s speed=0.0264x elapsed=0:03:36.26    \nframe=  139 fps=0.6 q=29.5 size=    2560KiB time=00:00:05.70 bitrate=3673.9kbits/s speed=0.0263x elapsed=0:03:36.78    \nframe=  140 fps=0.6 q=31.4 size=    2560KiB time=00:00:05.75 bitrate=3647.3kbits/s speed=0.0265x elapsed=0:03:37.30    \nframe=  140 fps=0.6 q=31.4 size=    2560KiB time=00:00:05.75 bitrate=3647.3kbits/s speed=0.0264x elapsed=0:03:37.82    \nframe=  141 fps=0.6 q=23.1 size=    2560KiB time=00:00:05.79 bitrate=3621.0kbits/s speed=0.0265x elapsed=0:03:38.34    \nframe=  142 fps=0.6 q=25.9 size=    2816KiB time=00:00:05.83 bitrate=3954.7kbits/s speed=0.0267x elapsed=0:03:38.86    \nframe=  144 fps=0.7 q=33.9 size=    2816KiB time=00:00:05.91 bitrate=3899.0kbits/s speed=0.027x elapsed=0:03:39.38    \nframe=  145 fps=0.7 q=33.6 size=    2816KiB time=00:00:05.95 bitrate=3871.7kbits/s speed=0.0271x elapsed=0:03:39.89    \nframe=  145 fps=0.7 q=33.6 size=    2816KiB time=00:00:05.95 bitrate=3871.7kbits/s speed=0.027x elapsed=0:03:40.41    \nframe=  146 fps=0.7 q=33.3 size=    2816KiB time=00:00:06.00 bitrate=3844.8kbits/s speed=0.0272x elapsed=0:03:40.92    \nframe=  148 fps=0.7 q=29.3 size=    2816KiB time=00:00:06.08 bitrate=3792.2kbits/s speed=0.0275x elapsed=0:03:41.43    \nframe=  149 fps=0.7 q=31.5 size=    2816KiB time=00:00:06.12 bitrate=3766.4kbits/s speed=0.0276x elapsed=0:03:41.97    \nframe=  149 fps=0.7 q=31.5 size=    2816KiB time=00:00:06.12 bitrate=3766.4kbits/s speed=0.0275x elapsed=0:03:42.50    \nframe=  150 fps=0.7 q=31.5 size=    2816KiB time=00:00:06.16 bitrate=3740.9kbits/s speed=0.0276x elapsed=0:03:43.05    \nframe=  151 fps=0.7 q=24.9 size=    2816KiB time=00:00:06.20 bitrate=3715.8kbits/s speed=0.0278x elapsed=0:03:43.58    \nframe=  151 fps=0.7 q=24.9 size=    2816KiB time=00:00:06.20 bitrate=3715.8kbits/s speed=0.0277x elapsed=0:03:44.09    \nframe=  152 fps=0.7 q=28.5 size=    3072KiB time=00:00:06.25 bitrate=4026.6kbits/s speed=0.0278x elapsed=0:03:44.61    \nframe=  153 fps=0.7 q=31.1 size=    3072KiB time=00:00:06.29 bitrate=3999.9kbits/s speed=0.0279x elapsed=0:03:45.12    \nframe=  154 fps=0.7 q=31.0 size=    3072KiB time=00:00:06.33 bitrate=3973.6kbits/s speed=0.0281x elapsed=0:03:45.65    \nframe=  154 fps=0.7 q=31.0 size=    3072KiB time=00:00:06.33 bitrate=3973.6kbits/s speed=0.028x elapsed=0:03:46.17    \nframe=  155 fps=0.7 q=24.5 size=    3072KiB time=00:00:06.37 bitrate=3947.6kbits/s speed=0.0281x elapsed=0:03:46.68    \nframe=  155 fps=0.7 q=24.5 size=    3072KiB time=00:00:06.37 bitrate=3947.6kbits/s speed=0.0281x elapsed=0:03:47.21    \nframe=  156 fps=0.7 q=26.6 size=    3072KiB time=00:00:06.41 bitrate=3922.0kbits/s speed=0.0282x elapsed=0:03:47.73    \nframe=  157 fps=0.7 q=30.8 size=    3072KiB time=00:00:06.45 bitrate=3896.7kbits/s speed=0.0283x elapsed=0:03:48.26    \nframe=  157 fps=0.7 q=30.8 size=    3072KiB time=00:00:06.45 bitrate=3896.7kbits/s speed=0.0282x elapsed=0:03:48.77    \nframe=  158 fps=0.7 q=30.2 size=    3072KiB time=00:00:06.50 bitrate=3871.7kbits/s speed=0.0283x elapsed=0:03:49.29    \nframe=  158 fps=0.7 q=30.2 size=    3072KiB time=00:00:06.50 bitrate=3871.7kbits/s speed=0.0283x elapsed=0:03:49.83    \nframe=  159 fps=0.7 q=30.2 size=    3072KiB time=00:00:06.54 bitrate=3847.1kbits/s speed=0.0284x elapsed=0:03:50.34    \nframe=  159 fps=0.7 q=30.2 size=    3072KiB time=00:00:06.54 bitrate=3847.1kbits/s speed=0.0283x elapsed=0:03:50.86    \nframe=  160 fps=0.7 q=24.6 size=    3072KiB time=00:00:06.58 bitrate=3822.7kbits/s speed=0.0284x elapsed=0:03:51.40    \nframe=  160 fps=0.7 q=24.6 size=    3072KiB time=00:00:06.58 bitrate=3822.7kbits/s speed=0.0284x elapsed=0:03:51.94    \nframe=  161 fps=0.7 q=24.2 size=    3072KiB time=00:00:06.62 bitrate=3798.7kbits/s speed=0.0285x elapsed=0:03:52.49    \nframe=  161 fps=0.7 q=24.2 size=    3072KiB time=00:00:06.62 bitrate=3798.7kbits/s speed=0.0284x elapsed=0:03:53.01    \nframe=  163 fps=0.7 q=30.5 size=    3072KiB time=00:00:06.70 bitrate=3751.5kbits/s speed=0.0287x elapsed=0:03:53.54    \nframe=  163 fps=0.7 q=30.5 size=    3072KiB time=00:00:06.70 bitrate=3751.5kbits/s speed=0.0287x elapsed=0:03:54.08    \nframe=  163 fps=0.7 q=30.5 size=    3072KiB time=00:00:06.70 bitrate=3751.5kbits/s speed=0.0286x elapsed=0:03:54.61    \nframe=  163 fps=0.7 q=30.5 size=    3072KiB time=00:00:06.70 bitrate=3751.5kbits/s speed=0.0285x elapsed=0:03:55.12    \nframe=  165 fps=0.7 q=25.0 size=    3072KiB time=00:00:06.79 bitrate=3705.4kbits/s speed=0.0288x elapsed=0:03:55.65    \nframe=  165 fps=0.7 q=25.0 size=    3072KiB time=00:00:06.79 bitrate=3705.4kbits/s speed=0.0288x elapsed=0:03:56.22    \nframe=  166 fps=0.7 q=25.2 size=    3328KiB time=00:00:06.83 bitrate=3989.8kbits/s speed=0.0289x elapsed=0:03:56.75    \nframe=  166 fps=0.7 q=25.2 size=    3328KiB time=00:00:06.83 bitrate=3989.8kbits/s speed=0.0288x elapsed=0:03:57.26    \nframe=  167 fps=0.7 q=31.4 size=    3328KiB time=00:00:06.87 bitrate=3965.6kbits/s speed=0.0289x elapsed=0:03:57.81    \nframe=  167 fps=0.7 q=31.4 size=    3328KiB time=00:00:06.87 bitrate=3965.6kbits/s speed=0.0288x elapsed=0:03:58.34    \nframe=  168 fps=0.7 q=30.6 size=    3328KiB time=00:00:06.91 bitrate=3941.7kbits/s speed=0.029x elapsed=0:03:58.86    \nframe=  168 fps=0.7 q=30.6 size=    3328KiB time=00:00:06.91 bitrate=3941.7kbits/s speed=0.0289x elapsed=0:03:59.38    \nframe=  168 fps=0.7 q=30.6 size=    3328KiB time=00:00:06.91 bitrate=3941.7kbits/s speed=0.0288x elapsed=0:03:59.90    \nframe=  168 fps=0.7 q=30.6 size=    3328KiB time=00:00:06.91 bitrate=3941.7kbits/s speed=0.0288x elapsed=0:04:00.44    \nframe=  170 fps=0.7 q=25.0 size=    3328KiB time=00:00:07.00 bitrate=3894.8kbits/s speed=0.029x elapsed=0:04:00.99    \nframe=  170 fps=0.7 q=25.0 size=    3328KiB time=00:00:07.00 bitrate=3894.8kbits/s speed=0.029x elapsed=0:04:01.49    \nframe=  170 fps=0.7 q=25.0 size=    3328KiB time=00:00:07.00 bitrate=3894.8kbits/s speed=0.0289x elapsed=0:04:02.04    \nframe=  170 fps=0.7 q=25.0 size=    3328KiB time=00:00:07.00 bitrate=3894.8kbits/s speed=0.0289x elapsed=0:04:02.57    \nframe=  170 fps=0.7 q=25.0 size=    3328KiB time=00:00:07.00 bitrate=3894.8kbits/s speed=0.0288x elapsed=0:04:03.12    \nframe=  170 fps=0.7 q=25.0 size=    3328KiB time=00:00:07.00 bitrate=3894.8kbits/s speed=0.0287x elapsed=0:04:03.68    \nframe=  170 fps=0.7 q=25.0 size=    3328KiB time=00:00:07.00 bitrate=3894.8kbits/s speed=0.0287x elapsed=0:04:04.26    \nframe=  170 fps=0.7 q=25.0 size=    3328KiB time=00:00:07.00 bitrate=3894.8kbits/s speed=0.0286x elapsed=0:04:04.80    \nframe=  171 fps=0.7 q=28.9 size=    3328KiB time=00:00:07.04 bitrate=3871.7kbits/s speed=0.0287x elapsed=0:04:05.35    \nframe=  171 fps=0.7 q=28.9 size=    3328KiB time=00:00:07.04 bitrate=3871.7kbits/s speed=0.0286x elapsed=0:04:05.91    \nframe=  171 fps=0.7 q=28.9 size=    3328KiB time=00:00:07.04 bitrate=3871.7kbits/s speed=0.0286x elapsed=0:04:06.50    \nframe=  171 fps=0.7 q=28.9 size=    3328KiB time=00:00:07.04 bitrate=3871.7kbits/s speed=0.0285x elapsed=0:04:07.05    \nframe=  171 fps=0.7 q=28.9 size=    3328KiB time=00:00:07.04 bitrate=3871.7kbits/s speed=0.0284x elapsed=0:04:07.60    \nframe=  171 fps=0.7 q=28.9 size=    3328KiB time=00:00:07.04 bitrate=3871.7kbits/s speed=0.0284x elapsed=0:04:08.16    \nframe=  172 fps=0.7 q=30.9 size=    3328KiB time=00:00:07.08 bitrate=3848.9kbits/s speed=0.0285x elapsed=0:04:08.71    \nframe=  172 fps=0.7 q=30.9 size=    3328KiB time=00:00:07.08 bitrate=3848.9kbits/s speed=0.0284x elapsed=0:04:09.24    \nframe=  173 fps=0.7 q=30.1 size=    3328KiB time=00:00:07.12 bitrate=3826.4kbits/s speed=0.0285x elapsed=0:04:09.77    \nframe=  174 fps=0.7 q=29.6 size=    3328KiB time=00:00:07.16 bitrate=3804.2kbits/s speed=0.0286x elapsed=0:04:10.32    \nframe=  174 fps=0.7 q=29.6 size=    3328KiB time=00:00:07.16 bitrate=3804.2kbits/s speed=0.0286x elapsed=0:04:10.85    \nframe=  174 fps=0.7 q=29.6 size=    3328KiB time=00:00:07.16 bitrate=3804.2kbits/s speed=0.0285x elapsed=0:04:11.36    \nframe=  175 fps=0.7 q=25.0 size=    3328KiB time=00:00:07.20 bitrate=3782.2kbits/s speed=0.0286x elapsed=0:04:11.87    \nframe=  176 fps=0.7 q=28.7 size=    3328KiB time=00:00:07.25 bitrate=3760.5kbits/s speed=0.0287x elapsed=0:04:12.42    \nframe=  177 fps=0.7 q=30.4 size=    3328KiB time=00:00:07.29 bitrate=3739.0kbits/s speed=0.0288x elapsed=0:04:12.93    \nframe=  178 fps=0.7 q=30.2 size=    3328KiB time=00:00:07.33 bitrate=3717.7kbits/s speed=0.0289x elapsed=0:04:13.47    \nframe=  178 fps=0.7 q=30.2 size=    3328KiB time=00:00:07.33 bitrate=3717.7kbits/s speed=0.0289x elapsed=0:04:14.00    \nframe=  179 fps=0.7 q=30.0 size=    3328KiB time=00:00:07.37 bitrate=3696.7kbits/s speed=0.029x elapsed=0:04:14.54    \nframe=  179 fps=0.7 q=30.0 size=    3328KiB time=00:00:07.37 bitrate=3696.7kbits/s speed=0.0289x elapsed=0:04:15.05    \nframe=  179 fps=0.7 q=30.0 size=    3328KiB time=00:00:07.37 bitrate=3696.7kbits/s speed=0.0289x elapsed=0:04:15.57    \nframe=  181 fps=0.7 q=27.1 size=    3584KiB time=00:00:07.45 bitrate=3936.6kbits/s speed=0.0291x elapsed=0:04:16.09    \nframe=  181 fps=0.7 q=27.1 size=    3584KiB time=00:00:07.45 bitrate=3936.6kbits/s speed=0.0291x elapsed=0:04:16.61    \nframe=  183 fps=0.7 q=28.8 size=    3584KiB time=00:00:07.54 bitrate=3893.1kbits/s speed=0.0293x elapsed=0:04:17.14    \nframe=  183 fps=0.7 q=28.8 size=    3584KiB time=00:00:07.54 bitrate=3893.1kbits/s speed=0.0293x elapsed=0:04:17.66    \nframe=  183 fps=0.7 q=28.8 size=    3584KiB time=00:00:07.54 bitrate=3893.1kbits/s speed=0.0292x elapsed=0:04:18.19    \nframe=  183 fps=0.7 q=28.8 size=    3584KiB time=00:00:07.54 bitrate=3893.1kbits/s speed=0.0291x elapsed=0:04:18.74    \nframe=  184 fps=0.7 q=24.4 size=    3584KiB time=00:00:07.58 bitrate=3871.7kbits/s speed=0.0292x elapsed=0:04:19.26    \nframe=  185 fps=0.7 q=27.2 size=    3584KiB time=00:00:07.62 bitrate=3850.6kbits/s speed=0.0294x elapsed=0:04:19.78    \nframe=  185 fps=0.7 q=27.2 size=    3584KiB time=00:00:07.62 bitrate=3850.6kbits/s speed=0.0293x elapsed=0:04:20.32    \nframe=  186 fps=0.7 q=29.0 size=    3584KiB time=00:00:07.66 bitrate=3829.6kbits/s speed=0.0294x elapsed=0:04:20.86    \nframe=  186 fps=0.7 q=29.0 size=    3584KiB time=00:00:07.66 bitrate=3829.6kbits/s speed=0.0293x elapsed=0:04:21.37    \nframe=  186 fps=0.7 q=29.0 size=    3584KiB time=00:00:07.66 bitrate=3829.6kbits/s speed=0.0293x elapsed=0:04:21.90    \nframe=  187 fps=0.7 q=29.0 size=    3584KiB time=00:00:07.70 bitrate=3808.9kbits/s speed=0.0294x elapsed=0:04:22.42    \nframe=  188 fps=0.7 q=23.9 size=    3584KiB time=00:00:07.70 bitrate=3808.9kbits/s speed=0.0293x elapsed=0:04:22.96    \nframe=  188 fps=0.7 q=23.9 size=    3584KiB time=00:00:07.75 bitrate=3788.4kbits/s speed=0.0294x elapsed=0:04:23.51    \nframe=  189 fps=0.7 q=27.3 size=    3584KiB time=00:00:07.79 bitrate=3768.2kbits/s speed=0.0295x elapsed=0:04:24.05    \nframe=  189 fps=0.7 q=27.3 size=    3584KiB time=00:00:07.79 bitrate=3768.2kbits/s speed=0.0294x elapsed=0:04:24.58    \nframe=  189 fps=0.7 q=27.3 size=    3584KiB time=00:00:07.79 bitrate=3768.2kbits/s speed=0.0294x elapsed=0:04:25.10    \nframe=  191 fps=0.7 q=28.3 size=    3584KiB time=00:00:07.87 bitrate=3728.3kbits/s speed=0.0296x elapsed=0:04:25.60    \nframe=  191 fps=0.7 q=28.3 size=    3584KiB time=00:00:07.87 bitrate=3728.3kbits/s speed=0.0296x elapsed=0:04:26.15    \nframe=  191 fps=0.7 q=28.3 size=    3584KiB time=00:00:07.87 bitrate=3728.3kbits/s speed=0.0295x elapsed=0:04:26.68    \nframe=  191 fps=0.7 q=28.3 size=    3584KiB time=00:00:07.87 bitrate=3728.3kbits/s speed=0.0295x elapsed=0:04:27.19    \nframe=  192 fps=0.7 q=28.6 size=    3584KiB time=00:00:07.91 bitrate=3708.7kbits/s speed=0.0296x elapsed=0:04:27.73    \nframe=  192 fps=0.7 q=28.6 size=    3584KiB time=00:00:07.91 bitrate=3708.7kbits/s speed=0.0295x elapsed=0:04:28.26    \nframe=  192 fps=0.7 q=28.6 size=    3584KiB time=00:00:07.91 bitrate=3708.7kbits/s speed=0.0295x elapsed=0:04:28.78    \nframe=  192 fps=0.7 q=28.6 size=    3584KiB time=00:00:07.91 bitrate=3708.7kbits/s speed=0.0294x elapsed=0:04:29.34    \nframe=  192 fps=0.7 q=28.6 size=    3584KiB time=00:00:07.91 bitrate=3708.7kbits/s speed=0.0293x elapsed=0:04:29.88    \nframe=  192 fps=0.7 q=28.6 size=    3584KiB time=00:00:07.91 bitrate=3708.7kbits/s speed=0.0293x elapsed=0:04:30.40    \nframe=  193 fps=0.7 q=23.2 size=    3584KiB time=00:00:07.95 bitrate=3689.3kbits/s speed=0.0294x elapsed=0:04:30.93    \nframe=  194 fps=0.7 q=22.9 size=    3840KiB time=00:00:08.00 bitrate=3932.2kbits/s speed=0.0295x elapsed=0:04:31.44    \nframe=  195 fps=0.7 q=28.9 size=    3840KiB time=00:00:08.04 bitrate=3911.8kbits/s speed=0.0296x elapsed=0:04:31.97    \nframe=  196 fps=0.7 q=29.3 size=    3840KiB time=00:00:08.08 bitrate=3891.7kbits/s speed=0.0297x elapsed=0:04:32.49    \nframe=  196 fps=0.7 q=29.3 size=    3840KiB time=00:00:08.08 bitrate=3891.7kbits/s speed=0.0296x elapsed=0:04:32.99    \nframe=  197 fps=0.7 q=28.9 size=    3840KiB time=00:00:08.12 bitrate=3871.7kbits/s speed=0.0297x elapsed=0:04:33.52    \nframe=  197 fps=0.7 q=28.9 size=    3840KiB time=00:00:08.12 bitrate=3871.7kbits/s speed=0.0296x elapsed=0:04:34.05    \nframe=  198 fps=0.7 q=24.2 size=    3840KiB time=00:00:08.16 bitrate=3852.0kbits/s speed=0.0297x elapsed=0:04:34.56    \nframe=  198 fps=0.7 q=24.2 size=    3840KiB time=00:00:08.16 bitrate=3852.0kbits/s speed=0.0297x elapsed=0:04:35.08    \nframe=  199 fps=0.7 q=24.1 size=    3840KiB time=00:00:08.20 bitrate=3832.4kbits/s speed=0.0298x elapsed=0:04:35.61    \nframe=  199 fps=0.7 q=24.1 size=    3840KiB time=00:00:08.20 bitrate=3832.4kbits/s speed=0.0297x elapsed=0:04:36.15    \nframe=  199 fps=0.7 q=24.1 size=    3840KiB time=00:00:08.20 bitrate=3832.4kbits/s speed=0.0297x elapsed=0:04:36.67    \nframe=  201 fps=0.7 q=29.6 size=    3840KiB time=00:00:08.29 bitrate=3793.9kbits/s speed=0.0299x elapsed=0:04:37.20    \nframe=  201 fps=0.7 q=29.6 size=    3840KiB time=00:00:08.29 bitrate=3793.9kbits/s speed=0.0299x elapsed=0:04:37.72    \nframe=  201 fps=0.7 q=29.6 size=    3840KiB time=00:00:08.29 bitrate=3793.9kbits/s speed=0.0298x elapsed=0:04:38.27    \nframe=  202 fps=0.7 q=28.7 size=    3840KiB time=00:00:08.33 bitrate=3774.9kbits/s speed=0.0299x elapsed=0:04:38.79    \nframe=  202 fps=0.7 q=28.7 size=    3840KiB time=00:00:08.33 bitrate=3774.9kbits/s speed=0.0298x elapsed=0:04:39.32    \nframe=  203 fps=0.7 q=23.7 size=    3840KiB time=00:00:08.37 bitrate=3756.1kbits/s speed=0.0299x elapsed=0:04:39.86    \nframe=  204 fps=0.7 q=27.8 size=    3840KiB time=00:00:08.41 bitrate=3737.5kbits/s speed=0.03x elapsed=0:04:40.38    \nframe=  204 fps=0.7 q=27.8 size=    3840KiB time=00:00:08.41 bitrate=3737.5kbits/s speed=0.03x elapsed=0:04:40.89    \nframe=  204 fps=0.7 q=27.8 size=    3840KiB time=00:00:08.41 bitrate=3737.5kbits/s speed=0.0299x elapsed=0:04:41.41    \nframe=  204 fps=0.7 q=27.8 size=    3840KiB time=00:00:08.41 bitrate=3737.5kbits/s speed=0.0299x elapsed=0:04:41.94    \nframe=  206 fps=0.7 q=29.4 size=    4096KiB time=00:00:08.50 bitrate=3947.6kbits/s speed=0.0301x elapsed=0:04:42.47    \nframe=  206 fps=0.7 q=29.4 size=    4096KiB time=00:00:08.50 bitrate=3947.6kbits/s speed=0.03x elapsed=0:04:43.01    \nframe=  207 fps=0.7 q=28.5 size=    4096KiB time=00:00:08.54 bitrate=3928.4kbits/s speed=0.0301x elapsed=0:04:43.52    \nframe=  207 fps=0.7 q=28.5 size=    4096KiB time=00:00:08.54 bitrate=3928.4kbits/s speed=0.0301x elapsed=0:04:44.03    \nframe=  207 fps=0.7 q=28.5 size=    4096KiB time=00:00:08.54 bitrate=3928.4kbits/s speed=0.03x elapsed=0:04:44.56    \nframe=  208 fps=0.7 q=23.2 size=    4096KiB time=00:00:08.58 bitrate=3909.3kbits/s speed=0.0301x elapsed=0:04:45.09    \nframe=  208 fps=0.7 q=23.2 size=    4096KiB time=00:00:08.58 bitrate=3909.3kbits/s speed=0.03x elapsed=0:04:45.63    \nframe=  209 fps=0.7 q=26.8 size=    4096KiB time=00:00:08.62 bitrate=3890.4kbits/s speed=0.0301x elapsed=0:04:46.14    \nframe=  209 fps=0.7 q=26.8 size=    4096KiB time=00:00:08.62 bitrate=3890.4kbits/s speed=0.0301x elapsed=0:04:46.68    \nframe=  210 fps=0.7 q=28.4 size=    4096KiB time=00:00:08.66 bitrate=3871.7kbits/s speed=0.0302x elapsed=0:04:47.20    \nframe=  210 fps=0.7 q=28.4 size=    4096KiB time=00:00:08.66 bitrate=3871.7kbits/s speed=0.0301x elapsed=0:04:47.73    \nframe=  212 fps=0.7 q=27.9 size=    4096KiB time=00:00:08.75 bitrate=3834.8kbits/s speed=0.0304x elapsed=0:04:48.25    \nframe=  213 fps=0.7 q=22.8 size=    4096KiB time=00:00:08.79 bitrate=3816.7kbits/s speed=0.0304x elapsed=0:04:48.81    \nframe=  213 fps=0.7 q=22.8 size=    4096KiB time=00:00:08.79 bitrate=3816.7kbits/s speed=0.0304x elapsed=0:04:49.33    \nframe=  213 fps=0.7 q=22.8 size=    4096KiB time=00:00:08.79 bitrate=3816.7kbits/s speed=0.0303x elapsed=0:04:49.84    \nframe=  214 fps=0.7 q=26.7 size=    4096KiB time=00:00:08.83 bitrate=3798.7kbits/s speed=0.0304x elapsed=0:04:50.37    \nframe=  215 fps=0.7 q=28.3 size=    4096KiB time=00:00:08.87 bitrate=3780.8kbits/s speed=0.0305x elapsed=0:04:50.89    \nframe=  216 fps=0.7 q=27.9 size=    4096KiB time=00:00:08.91 bitrate=3763.2kbits/s speed=0.0306x elapsed=0:04:51.44    \nframe=  217 fps=0.7 q=27.3 size=    4096KiB time=00:00:08.95 bitrate=3745.7kbits/s speed=0.0307x elapsed=0:04:51.97    \nframe=  217 fps=0.7 q=27.3 size=    4096KiB time=00:00:08.95 bitrate=3745.7kbits/s speed=0.0306x elapsed=0:04:52.51    \nframe=  218 fps=0.7 q=22.7 size=    4096KiB time=00:00:09.00 bitrate=3728.3kbits/s speed=0.0307x elapsed=0:04:53.04    \nframe=  218 fps=0.7 q=22.7 size=    4096KiB time=00:00:09.00 bitrate=3728.3kbits/s speed=0.0307x elapsed=0:04:53.58    \nframe=  219 fps=0.7 q=26.3 size=    4352KiB time=00:00:09.04 bitrate=3943.1kbits/s speed=0.0307x elapsed=0:04:54.13    \nframe=  219 fps=0.7 q=26.3 size=    4352KiB time=00:00:09.04 bitrate=3943.1kbits/s speed=0.0307x elapsed=0:04:54.66    \nframe=  219 fps=0.7 q=26.3 size=    4352KiB time=00:00:09.04 bitrate=3943.1kbits/s speed=0.0306x elapsed=0:04:55.18    \nframe=  219 fps=0.7 q=26.3 size=    4352KiB time=00:00:09.04 bitrate=3943.1kbits/s speed=0.0306x elapsed=0:04:55.68    \nframe=  220 fps=0.7 q=27.3 size=    4352KiB time=00:00:09.08 bitrate=3925.0kbits/s speed=0.0307x elapsed=0:04:56.20    \nframe=  221 fps=0.7 q=27.6 size=    4352KiB time=00:00:09.12 bitrate=3907.1kbits/s speed=0.0308x elapsed=0:04:56.71    \nframe=  221 fps=0.7 q=27.6 size=    4352KiB time=00:00:09.12 bitrate=3907.1kbits/s speed=0.0307x elapsed=0:04:57.24    \nframe=  221 fps=0.7 q=27.6 size=    4352KiB time=00:00:09.12 bitrate=3907.1kbits/s speed=0.0306x elapsed=0:04:57.77    \nframe=  222 fps=0.7 q=26.2 size=    4352KiB time=00:00:09.16 bitrate=3889.3kbits/s speed=0.0307x elapsed=0:04:58.30    \nframe=  222 fps=0.7 q=26.2 size=    4352KiB time=00:00:09.16 bitrate=3889.3kbits/s speed=0.0307x elapsed=0:04:58.83    \nframe=  223 fps=0.7 q=22.5 size=    4352KiB time=00:00:09.20 bitrate=3871.7kbits/s speed=0.0308x elapsed=0:04:59.36    \nframe=  224 fps=0.7 q=25.2 size=    4352KiB time=00:00:09.20 bitrate=3871.7kbits/s speed=0.0307x elapsed=0:04:59.87    \nframe=  225 fps=0.7 q=26.8 size=    4352KiB time=00:00:09.29 bitrate=3837.0kbits/s speed=0.0309x elapsed=0:05:00.41    \nframe=  225 fps=0.7 q=26.8 size=    4352KiB time=00:00:09.29 bitrate=3837.0kbits/s speed=0.0309x elapsed=0:05:00.92    \nframe=  226 fps=0.7 q=26.8 size=    4352KiB time=00:00:09.33 bitrate=3819.9kbits/s speed=0.031x elapsed=0:05:01.44    \nframe=  227 fps=0.8 q=22.4 size=    4352KiB time=00:00:09.37 bitrate=3802.9kbits/s speed=0.031x elapsed=0:05:01.95    \nframe=  228 fps=0.8 q=24.1 size=    4352KiB time=00:00:09.41 bitrate=3786.0kbits/s speed=0.0311x elapsed=0:05:02.47    \nframe=  230 fps=0.8 q=26.8 size=    4352KiB time=00:00:09.50 bitrate=3752.8kbits/s speed=0.0314x elapsed=0:05:02.98    \nframe=  231 fps=0.8 q=25.9 size=    4352KiB time=00:00:09.54 bitrate=3736.4kbits/s speed=0.0314x elapsed=0:05:03.50    \nframe=  232 fps=0.8 q=22.1 size=    4352KiB time=00:00:09.58 bitrate=3720.2kbits/s speed=0.0315x elapsed=0:05:04.02    \nframe=  233 fps=0.8 q=23.2 size=    4608KiB time=00:00:09.62 bitrate=3922.0kbits/s speed=0.0316x elapsed=0:05:04.55    \nframe=  235 fps=0.8 q=26.2 size=    4608KiB time=00:00:09.70 bitrate=3888.3kbits/s speed=0.0318x elapsed=0:05:05.07    \nframe=  235 fps=0.8 q=26.2 size=    4608KiB time=00:00:09.70 bitrate=3888.3kbits/s speed=0.0318x elapsed=0:05:05.59    \nframe=  236 fps=0.8 q=25.5 size=    4608KiB time=00:00:09.75 bitrate=3871.7kbits/s speed=0.0319x elapsed=0:05:06.10    \nframe=  236 fps=0.8 q=25.5 size=    4608KiB time=00:00:09.75 bitrate=3871.7kbits/s speed=0.0318x elapsed=0:05:06.61    \nframe=  238 fps=0.8 q=22.5 size=    4608KiB time=00:00:09.83 bitrate=3838.9kbits/s speed=0.032x elapsed=0:05:07.12    \nframe=  238 fps=0.8 q=22.5 size=    4608KiB time=00:00:09.83 bitrate=3838.9kbits/s speed=0.032x elapsed=0:05:07.64    \nframe=  238 fps=0.8 q=22.5 size=    4608KiB time=00:00:09.83 bitrate=3838.9kbits/s speed=0.0319x elapsed=0:05:08.17    \n[mp4 @ 0000013fec07b740] Starting second pass: moving the moov atom to the beginning of the file\n[out#0/mp4 @ 0000013fec07b640] video:4817KiB audio:0KiB subtitle:0KiB other streams:0KiB global headers:2KiB muxing overhead: 0.129716%\nframe=  240 fps=0.8 q=23.4 Lsize=    4823KiB time=00:00:09.91 bitrate=3984.2kbits/s speed=0.0322x elapsed=0:05:08.37    \nx265 [info]: frame I:      2, Avg QP:25.74  kb/s: 19874.21\nx265 [info]: frame P:     55, Avg QP:26.44  kb/s: 9164.01 \nx265 [info]: frame B:    183, Avg QP:30.27  kb/s: 2202.46 \nx265 [info]: Weighted P-Frames: Y:0.0% UV:0.0%\n\nencoded 240 frames in 308.44s (0.78 fps), 3945.08 kb/s, Avg QP:29.36\n",
  "seconds": 308.70844411849976,
  "probe_out": {}
}